<svg width="148" height="148" viewBox="0 0 148 148" fill="none" xmlns="http://www.w3.org/2000/svg">
<rect width="148" height="148" rx="6" fill="#F8F8FE"/>
<path d="M33.7301 107.458C32.9355 107.458 32.2925 106.815 32.2925 106.02V75.8092C32.2925 75.0139 32.9355 74.3716 33.7301 74.3716C34.5254 74.3716 35.1677 75.0139 35.1677 75.8092V106.02C35.1677 106.813 34.5254 107.458 33.7301 107.458Z" fill="#DEE4EF"/>
<path d="M89.7873 111.746H38.0426C37.248 111.746 36.605 111.103 36.605 110.308C36.605 109.513 37.248 108.871 38.0426 108.871H89.7873C90.5826 108.871 91.2249 109.513 91.2249 110.308C91.2249 111.103 90.5826 111.746 89.7873 111.746Z" fill="#DEE4EF"/>
<path d="M78.3041 39.8752H56.7403C55.945 39.8752 55.3027 39.2329 55.3027 38.4376C55.3027 37.643 55.945 37 56.7403 37H78.3041C79.0987 37 79.7417 37.643 79.7417 38.4376C79.7417 39.2329 79.0987 39.8752 78.3041 39.8752Z" fill="#DEE4EF"/>
<path d="M55.3028 41.3128C54.5075 41.3128 53.8652 40.6705 53.8652 39.8752C53.8652 38.2895 55.1547 37 56.7404 37C57.535 37 58.178 37.643 58.178 38.4376C58.178 39.2329 57.535 39.8752 56.7404 39.8752C56.7404 40.6705 56.0974 41.3128 55.3028 41.3128Z" fill="#DEE4EF"/>
<path d="M79.7419 41.3128C78.9466 41.3128 78.3043 40.6705 78.3043 39.8752V39.8724C77.509 39.8724 76.8667 39.2315 76.8667 38.4362C76.8667 37.643 77.509 37 78.3043 37C79.89 37 81.1795 38.2895 81.1795 39.8752C81.1795 40.6705 80.5365 41.3128 79.7419 41.3128Z" fill="#DEE4EF"/>
<path d="M79.7418 45.6254C78.9465 45.6254 78.3042 44.9832 78.3042 44.1878V39.8751C78.3042 39.0805 78.9465 38.4375 79.7418 38.4375C80.5364 38.4375 81.1794 39.0805 81.1794 39.8751V44.1878C81.1794 44.9832 80.5364 45.6254 79.7418 45.6254Z" fill="#DEE4EF"/>
<path d="M55.3028 45.6254C54.5075 45.6254 53.8652 44.9832 53.8652 44.1878V39.8751C53.8652 39.0805 54.5075 38.4375 55.3028 38.4375C56.0974 38.4375 56.7404 39.0805 56.7404 39.8751V44.1878C56.7404 44.9832 56.0974 45.6254 55.3028 45.6254Z" fill="#DEE4EF"/>
<path d="M79.7418 45.6254H55.3028C54.5075 45.6254 53.8652 44.9831 53.8652 44.1878C53.8652 43.3932 54.5075 42.7502 55.3028 42.7502H79.7418C80.5364 42.7502 81.1794 43.3932 81.1794 44.1878C81.1794 44.9831 80.5364 45.6254 79.7418 45.6254Z" fill="#DEE4EF"/>
<path d="M79.7418 51.3758C78.9465 51.3758 78.3042 50.7335 78.3042 49.9382V44.1878C78.3042 43.3932 78.9465 42.7502 79.7418 42.7502C80.5364 42.7502 81.1794 43.3932 81.1794 44.1878V49.9382C81.1794 50.7335 80.5364 51.3758 79.7418 51.3758Z" fill="#DEE4EF"/>
<path d="M73.9918 51.3758C73.1965 51.3758 72.5542 50.7335 72.5542 49.9382V44.1878C72.5542 43.3932 73.1965 42.7502 73.9918 42.7502C74.7864 42.7502 75.4294 43.3932 75.4294 44.1878V49.9382C75.4294 50.7335 74.7864 51.3758 73.9918 51.3758Z" fill="#DEE4EF"/>
<path d="M61.0533 51.3758C60.258 51.3758 59.6157 50.7335 59.6157 49.9382V44.1878C59.6157 43.3932 60.258 42.7502 61.0533 42.7502C61.8479 42.7502 62.4909 43.3932 62.4909 44.1878V49.9382C62.4909 50.7335 61.8479 51.3758 61.0533 51.3758Z" fill="#DEE4EF"/>
<path d="M55.3028 51.3758C54.5075 51.3758 53.8652 50.7335 53.8652 49.9382V44.1878C53.8652 43.3932 54.5075 42.7502 55.3028 42.7502C56.0974 42.7502 56.7404 43.3932 56.7404 44.1878V49.9382C56.7404 50.7335 56.0974 51.3758 55.3028 51.3758Z" fill="#DEE4EF"/>
<path d="M95.5437 47.0632H85.4806C84.686 47.0632 84.043 46.4209 84.043 45.6256C84.043 44.831 84.686 44.188 85.4806 44.188H95.5437C96.339 44.188 96.9813 44.831 96.9813 45.6256C96.9813 46.4209 96.339 47.0632 95.5437 47.0632Z" fill="#DEE4EF"/>
<path d="M85.4806 51.3759C84.686 51.3759 84.043 50.7336 84.043 49.9383V45.6256C84.043 44.831 84.686 44.188 85.4806 44.188C86.2759 44.188 86.9181 44.831 86.9181 45.6256V49.9383C86.9181 50.7336 86.2759 51.3759 85.4806 51.3759Z" fill="#DEE4EF"/>
<path d="M49.5637 47.0632H39.5006C38.7053 47.0632 38.063 46.4209 38.063 45.6256C38.063 44.831 38.7053 44.188 39.5006 44.188H49.5637C50.359 44.188 51.0013 44.831 51.0013 45.6256C51.0013 46.4209 50.359 47.0632 49.5637 47.0632Z" fill="#DEE4EF"/>
<path d="M39.5006 51.3759C38.7053 51.3759 38.063 50.7336 38.063 49.9383V45.6256C38.063 44.831 38.7053 44.188 39.5006 44.188C40.2959 44.188 40.9382 44.831 40.9382 45.6256V49.9383C40.9382 50.7336 40.2959 51.3759 39.5006 51.3759Z" fill="#DEE4EF"/>
<path d="M49.5753 51.3759C48.7807 51.3759 48.1377 50.7336 48.1377 49.9383V45.6256C48.1377 44.831 48.7807 44.188 49.5753 44.188C50.3706 44.188 51.0129 44.831 51.0129 45.6256V49.9383C51.0129 50.7336 50.3706 51.3759 49.5753 51.3759Z" fill="#DEE4EF"/>
<path d="M72.5539 85.8738H62.4908C61.6955 85.8738 61.0532 85.2308 61.0532 84.4362V67.1851C61.0532 66.3898 61.6955 65.7476 62.4908 65.7476H72.5539C73.3485 65.7476 73.9915 66.3898 73.9915 67.1851V84.4362C73.9915 85.2308 73.3485 85.8738 72.5539 85.8738ZM63.9284 82.9986H71.1163V68.6227H63.9284V82.9986Z" fill="#DEE4EF"/>
<path d="M67.5225 80.1233C66.7272 80.1233 66.085 79.4803 66.085 78.6857V72.9354C66.085 72.1401 66.7272 71.4978 67.5225 71.4978C68.3172 71.4978 68.9601 72.1401 68.9601 72.9354V78.6857C68.9601 79.4803 68.3172 80.1233 67.5225 80.1233Z" fill="#DEE4EF"/>
<path d="M105.607 77.2483C104.812 77.2483 104.169 76.6053 104.169 75.8107V57.1263C104.169 56.3317 104.812 55.6887 105.607 55.6887C106.402 55.6887 107.044 56.3317 107.044 57.1263V75.8107C107.044 76.6053 106.402 77.2483 105.607 77.2483Z" fill="#DEE4EF"/>
<path d="M105.607 77.2482H72.524C71.7287 77.2482 71.0864 76.6052 71.0864 75.8106C71.0864 75.0153 71.7287 74.373 72.524 74.373H105.608C106.403 74.373 107.046 75.0153 107.046 75.8106C107.046 76.6052 106.402 77.2482 105.607 77.2482Z" fill="#DEE4EF"/>
<path d="M95.5435 51.3759C94.7489 51.3759 94.106 50.7336 94.106 49.9383V45.6256C94.106 44.831 94.7489 44.188 95.5435 44.188C96.3388 44.188 96.9811 44.831 96.9811 45.6256V49.9383C96.9811 50.7336 96.3388 51.3759 95.5435 51.3759Z" fill="#DEE4EF"/>
<path d="M105.606 58.5638C104.812 58.5638 104.169 57.9216 104.169 57.1263C104.169 53.9549 101.59 51.3759 98.4185 51.3759C97.6239 51.3759 96.981 50.7336 96.981 49.9383C96.981 49.1437 97.6239 48.5007 98.4185 48.5007C103.176 48.5007 107.044 52.3692 107.044 57.1263C107.044 57.9216 106.402 58.5638 105.606 58.5638Z" fill="#DEE4EF"/>
<path d="M29.4376 77.2483C28.6423 77.2483 28 76.6053 28 75.8107V57.1263C28 56.3317 28.6423 55.6887 29.4376 55.6887C30.2329 55.6887 30.8752 56.3317 30.8752 57.1263V75.8107C30.8752 76.6053 30.2329 77.2483 29.4376 77.2483Z" fill="#DEE4EF"/>
<path d="M62.5196 77.2482H29.4376C28.6423 77.2482 28 76.6052 28 75.8106C28 75.0153 28.6423 74.373 29.4376 74.373H62.5196C63.3142 74.373 63.9572 75.0153 63.9572 75.8106C63.9572 76.6052 63.3128 77.2482 62.5196 77.2482Z" fill="#DEE4EF"/>
<path d="M29.4376 58.5638C28.6423 58.5638 28 57.9216 28 57.1263C28 52.3692 31.8684 48.5007 36.6255 48.5007C37.4208 48.5007 38.0631 49.1437 38.0631 49.9383C38.0631 50.7336 37.4208 51.3759 36.6255 51.3759C33.4541 51.3759 30.8752 53.9549 30.8752 57.1263C30.8752 57.9216 30.2329 58.5638 29.4376 58.5638Z" fill="#DEE4EF"/>
<path d="M38.0428 111.746C34.8714 111.746 32.2925 109.167 32.2925 105.996C32.2925 105.2 32.9355 104.558 33.7301 104.558C34.5254 104.558 35.1677 105.2 35.1677 105.996C35.1677 107.581 36.4571 108.871 38.0428 108.871C38.8381 108.871 39.4804 109.513 39.4804 110.308C39.4804 111.103 38.8381 111.746 38.0428 111.746Z" fill="#DEE4EF"/>
<path d="M98.4187 51.3759H36.6256C35.8303 51.3759 35.188 50.7336 35.188 49.9383C35.188 49.1437 35.8303 48.5007 36.6256 48.5007H98.4187C99.214 48.5007 99.8562 49.1437 99.8562 49.9383C99.8562 50.7336 99.214 51.3759 98.4187 51.3759Z" fill="#DEE4EF"/>
<path d="M114.25 85.8591H91.254C90.4587 85.8591 89.8164 85.2168 89.8164 84.4215C89.8164 83.6269 90.4587 82.9839 91.254 82.9839H114.25C115.044 82.9839 115.687 83.6269 115.687 84.4215C115.687 85.2168 115.044 85.8591 114.25 85.8591Z" fill="#DEE4EF"/>
<path d="M102.752 111.741C101.956 111.741 101.314 111.098 101.314 110.303V80.1087C101.314 79.3141 101.956 78.6711 102.752 78.6711C103.546 78.6711 104.189 79.3141 104.189 80.1087V110.303C104.189 111.098 103.546 111.741 102.752 111.741Z" fill="#DEE4EF"/>
<path d="M111.374 111.74H94.129C93.3337 111.74 92.6914 111.097 92.6914 110.303C92.6914 109.508 93.3337 108.865 94.129 108.865H111.374C112.169 108.865 112.812 109.508 112.812 110.303C112.812 111.097 112.169 111.74 111.374 111.74Z" fill="#DEE4EF"/>
<path d="M91.2538 104.551C88.0824 104.551 85.5034 101.972 85.5034 98.8009C85.5034 98.0056 86.1457 97.3633 86.941 97.3633C87.7363 97.3633 88.3786 98.0056 88.3786 98.8009C88.3786 100.386 89.6681 101.676 91.2538 101.676C92.8395 101.676 94.1289 100.386 94.1289 98.8009C94.1289 98.0056 94.7712 97.3633 95.5665 97.3633C96.3618 97.3633 97.0041 98.0056 97.0041 98.8009C97.0041 101.972 94.4252 104.551 91.2538 104.551Z" fill="#DEE4EF"/>
<path d="M95.5665 100.238H86.941C86.1457 100.238 85.5034 99.5955 85.5034 98.8009C85.5034 98.0056 86.1457 97.3633 86.941 97.3633H95.5665C96.3618 97.3633 97.0041 98.0056 97.0041 98.8009C97.0041 99.5955 96.3618 100.238 95.5665 100.238Z" fill="#DEE4EF"/>
<path d="M86.9413 100.238C86.8044 100.238 86.6669 100.218 86.5286 100.178C85.7684 99.9493 85.3367 99.1483 85.5641 98.3881L89.8769 84.0095C90.1043 83.2485 90.9017 82.819 91.6668 83.0443C92.427 83.2731 92.8587 84.074 92.6313 84.8342L88.3185 99.2129C88.1318 99.837 87.5611 100.238 86.9413 100.238Z" fill="#DEE4EF"/>
<path d="M95.5666 100.238C94.9468 100.238 94.3761 99.837 94.1894 99.2129L89.8766 84.8342C89.6492 84.074 90.0809 83.2731 90.8411 83.0443C91.602 82.819 92.4036 83.2485 92.631 84.0095L96.9438 98.3881C97.1712 99.1483 96.7395 99.9493 95.9793 100.178C95.841 100.22 95.7035 100.238 95.5666 100.238Z" fill="#DEE4EF"/>
<path d="M114.249 104.551C111.078 104.551 108.499 101.972 108.499 98.8009C108.499 98.0056 109.141 97.3633 109.937 97.3633C110.731 97.3633 111.374 98.0056 111.374 98.8009C111.374 100.386 112.664 101.676 114.249 101.676C115.835 101.676 117.125 100.386 117.125 98.8009C117.125 98.0056 117.767 97.3633 118.562 97.3633C119.357 97.3633 120 98.0056 120 98.8009C120 101.972 117.421 104.551 114.249 104.551Z" fill="#DEE4EF"/>
<path d="M118.562 100.238H109.937C109.141 100.238 108.499 99.5955 108.499 98.8009C108.499 98.0056 109.141 97.3633 109.937 97.3633H118.562C119.357 97.3633 120 98.0056 120 98.8009C120 99.5955 119.357 100.238 118.562 100.238Z" fill="#DEE4EF"/>
<path d="M109.937 100.238C109.8 100.238 109.662 100.218 109.524 100.178C108.764 99.9493 108.332 99.1483 108.56 98.3881L112.872 84.0095C113.099 83.2485 113.9 82.819 114.662 83.0443C115.423 83.2731 115.854 84.074 115.627 84.8342L111.314 99.2129C111.127 99.837 110.556 100.238 109.937 100.238Z" fill="#DEE4EF"/>
<path d="M118.562 100.238C117.942 100.238 117.372 99.837 117.185 99.2129L112.872 84.8342C112.645 84.074 113.076 83.2731 113.837 83.0443C114.6 82.819 115.398 83.2485 115.627 84.0095L119.939 98.3881C120.166 99.1483 119.735 99.9493 118.975 100.178C118.837 100.22 118.698 100.238 118.562 100.238Z" fill="#DEE4EF"/>
</svg>
