<svg width="116" height="116" viewBox="0 0 116 116" fill="none" xmlns="http://www.w3.org/2000/svg">
<path d="M96.6165 83.5806C97.2586 83.5806 97.8797 83.7685 98.4147 84.1252L105.962 89.1569C106.854 89.75 107.89 90.0645 108.959 90.0645H116V87.9032H108.961C108.319 87.9032 107.696 87.7154 107.161 87.3587L104.113 85.3261V49H63.0484V55.4839H49V116H90.0645V109.516H104.113V100.425C104.181 100.408 104.251 100.403 104.319 100.387L109.346 99.1302C110.462 98.8511 111.609 98.7097 112.758 98.7097H116V96.5484H112.758C111.433 96.5484 110.108 96.7114 108.822 97.0328L103.795 98.2891C101.211 98.9345 98.4612 98.8295 95.9368 97.9878L94.1159 97.3805C92.458 96.828 90.7315 96.5484 88.9839 96.5484H79.5541C79.5541 94.7612 81.0088 93.3065 82.796 93.3065H94.6831C96.4708 93.3065 97.9251 91.8517 97.9251 90.0645C97.9251 88.4066 96.6692 87.0516 95.0625 86.8606L95.9495 83.5806H96.6165ZM95.2514 100.038C96.9093 100.591 98.6363 100.871 100.383 100.871C100.908 100.871 101.431 100.826 101.952 100.775V107.355H90.0645V103.82C90.4439 103.383 90.7378 102.865 90.8956 102.279L91.7805 99.0015C92.3371 99.1149 92.8891 99.25 93.431 99.4315L95.2514 100.038ZM89.615 98.7345L88.8097 101.715C88.6003 102.491 87.8927 103.032 87.0896 103.032H86.7392C85.7572 103.032 84.9584 102.234 84.9584 101.251C84.9584 101.094 84.9789 100.938 85.0201 100.787L85.581 98.7097H88.9839C89.1944 98.7097 89.4044 98.726 89.615 98.7345ZM83.3416 98.7097L82.9332 100.221C82.8425 100.556 82.7971 100.902 82.7971 101.251C82.7971 102.712 83.6054 103.976 84.789 104.656L84.4497 106.011L86.5461 106.536L86.8822 105.194H87.0896C87.3682 105.194 87.6383 105.155 87.9032 105.099V113.839H51.1613V57.6452H65.2097V51.1613H101.952V83.8856L99.6141 82.3269C98.7229 81.7338 97.6866 81.4194 96.6165 81.4194H96.5331L101.031 64.7786C101.122 64.4435 101.167 64.0979 101.167 63.7486C101.167 61.5746 99.3983 59.8065 97.2248 59.8065H96.8745C95.0973 59.8065 93.5323 61.0048 93.0685 62.7207L90.0645 73.8364V55.4839H67.371V57.6452H87.9032V81.4194H85.6675C84.4914 81.4194 83.3838 81.8093 82.4578 82.5H71.6936V84.6613H80.1873L78.026 86.8226H71.6936V88.9839H75.8657L74.0601 90.7895C73.4227 91.4259 73.0713 92.2733 73.0713 93.1756C73.0713 95.0356 74.5841 96.5484 76.4451 96.5484C76.7781 96.5484 77.0989 96.4845 77.4102 96.3917C77.4091 96.4444 77.3938 96.4946 77.3938 96.5484C77.3938 97.7404 78.3632 98.7097 79.5551 98.7097H83.3416ZM91.666 91.1452H87.6257L92.1889 74.2611L95.8957 75.4964L91.666 91.1452ZM83.3754 84.5294C83.9796 83.9263 84.8148 83.5806 85.6675 83.5806H87.431L86.5493 86.8421C85.1821 86.8917 83.9004 87.432 82.9279 88.4045L77.301 94.0315C77.0751 94.2573 76.7628 94.3871 76.4441 94.3871C75.775 94.3871 75.2315 93.8436 75.2315 93.1756C75.2315 92.8516 75.3581 92.5477 75.5871 92.3187L83.3754 84.5294ZM84.456 89.9326C84.8644 89.5242 85.3842 89.2456 85.9388 89.1005L85.3863 91.1452H83.2445L84.456 89.9326ZM98.944 64.2145L97.6206 69.1107L93.9138 67.8754L95.1543 63.2853C95.3648 62.5091 96.0719 61.9677 96.8745 61.9677H97.2248C98.2073 61.9677 99.0057 62.7661 99.0057 63.7486C99.0057 63.9064 98.9851 64.062 98.944 64.2145ZM93.3497 69.9655L97.0565 71.2007L96.4597 73.4063L92.7529 72.1711L93.3497 69.9655ZM94.6831 88.9839C95.2788 88.9839 95.7638 89.4693 95.7638 90.0645C95.7638 90.6597 95.2788 91.1452 94.6831 91.1452H93.9043L94.4889 88.9839H94.6831Z" fill="#00A77F"/>
<path d="M81.4194 59.8064H53.3226V70.6128H81.4194V59.8064ZM79.2581 68.4516H55.4839V61.9677H79.2581V68.4516Z" fill="#00A77F"/>
<path d="M57.6452 64.1292H59.8064V66.2904H57.6452V64.1292Z" fill="#00A77F"/>
<path d="M61.9677 64.1292H64.129V66.2904H61.9677V64.1292Z" fill="#00A77F"/>
<path d="M66.2903 64.1292H68.4516V66.2904H66.2903V64.1292Z" fill="#00A77F"/>
<path d="M70.6129 64.1292H72.7742V66.2904H70.6129V64.1292Z" fill="#00A77F"/>
<path d="M74.9355 64.1292H77.0968V66.2904H74.9355V64.1292Z" fill="#00A77F"/>
<path d="M66.2903 83.5806H64.129V87.9031H55.4839V79.258H61.9677V77.0967H53.3226V90.0644H66.2903V83.5806Z" fill="#00A77F"/>
<path d="M69.8489 73.0908L59.8065 83.1332L58.4092 81.736L56.8811 83.2641L59.8065 86.1894L71.377 74.6189L69.8489 73.0908Z" fill="#00A77F"/>
<path d="M64.129 106.274H55.4839V97.6291H61.9677V95.4678H53.3226V108.436H66.2903V101.952H64.129V106.274Z" fill="#00A77F"/>
<path d="M58.4092 100.107L56.8811 101.635L59.8065 104.56L71.377 92.9898L69.8489 91.4617L59.8065 101.504L58.4092 100.107Z" fill="#00A77F"/>
<path d="M83.5806 108.436H85.7419V110.597H83.5806V108.436Z" fill="#00A77F"/>
<path d="M69.5323 108.436H81.4194V110.597H69.5323V108.436Z" fill="#00A77F"/>
<path d="M71.6935 78.1775H85.7419V80.3388H71.6935V78.1775Z" fill="#00A77F"/>
<g filter="url(#filter0_d)">
<circle cx="44" cy="37" r="30" fill="white"/>
<circle cx="44" cy="37" r="29" stroke="#00A77F" stroke-width="2"/>
</g>
<path d="M46.9765 45H44.0515V32.125L41.3265 34.95L39.6265 33.175L44.4265 28.325H46.9765V45Z" fill="#161737"/>
<defs>
<filter id="filter0_d" x="0" y="0" width="88" height="88" filterUnits="userSpaceOnUse" color-interpolation-filters="sRGB">
<feFlood flood-opacity="0" result="BackgroundImageFix"/>
<feColorMatrix in="SourceAlpha" type="matrix" values="0 0 0 0 0 0 0 0 0 0 0 0 0 0 0 0 0 0 127 0"/>
<feOffset dy="7"/>
<feGaussianBlur stdDeviation="7"/>
<feColorMatrix type="matrix" values="0 0 0 0 0 0 0 0 0 0 0 0 0 0 0 0 0 0 0.1 0"/>
<feBlend mode="normal" in2="BackgroundImageFix" result="effect1_dropShadow"/>
<feBlend mode="normal" in="SourceGraphic" in2="effect1_dropShadow" result="shape"/>
</filter>
</defs>
</svg>
