<svg width="126" height="118" viewBox="0 0 126 118" fill="none" xmlns="http://www.w3.org/2000/svg">
<path d="M78.258 81C80.8911 81 83.0322 78.8589 83.0322 76.2258H80.6451C80.6451 77.5423 79.5746 78.6129 78.258 78.6129C76.9415 78.6129 75.871 77.5423 75.871 76.2258H73.4839C73.4839 78.8589 75.625 81 78.258 81Z" fill="#00A77F"/>
<path d="M73.4839 69.0644C73.4839 69.7235 72.9495 70.2579 72.2903 70.2579C71.6312 70.2579 71.0968 69.7235 71.0968 69.0644C71.0968 68.4053 71.6312 67.8708 72.2903 67.8708C72.9495 67.8708 73.4839 68.4053 73.4839 69.0644Z" fill="#00A77F"/>
<path d="M85.4194 69.0644C85.4194 69.7235 84.8849 70.2579 84.2258 70.2579C83.5667 70.2579 83.0323 69.7235 83.0323 69.0644C83.0323 68.4053 83.5667 67.8708 84.2258 67.8708C84.8849 67.8708 85.4194 68.4053 85.4194 69.0644Z" fill="#00A77F"/>
<path d="M92.5806 79.8065V89.2901L86.6129 87.3005V83.9576C88.655 82.2687 90.1673 79.9702 90.8964 77.3477C93.8529 76.9957 96.1613 74.5013 96.1613 71.4516V61.9032C96.1613 52.0314 88.1299 44 78.2581 44C68.3862 44 60.3548 52.0314 60.3548 61.9032V71.4516C60.3548 74.5013 62.6633 76.9957 65.6197 77.3477C66.3488 79.9702 67.8611 82.2687 69.9032 83.9576V87.3005L57.7125 91.366C54.2962 92.5036 52 95.6892 52 99.2902V110.839H92.5806V118H126V87.6671L118.139 79.8065H92.5806ZM118.839 83.8813L121.925 86.9677H118.839V83.8813ZM87.6229 90.1533L85.8034 99.2459L80.0985 95.1699L85.7416 89.5268L87.6229 90.1533ZM91.337 74.8283C91.362 74.5002 91.3871 74.1726 91.3871 73.8387V68.0907C92.773 68.5849 93.7742 69.8979 93.7742 71.4516C93.7742 73.0234 92.7491 74.3481 91.337 74.8283ZM62.7419 71.4516C62.7419 69.8979 63.7432 68.5849 65.129 68.0907V73.8387C65.129 74.1726 65.1541 74.5002 65.1792 74.8283C63.7671 74.3481 62.7419 73.0234 62.7419 71.4516ZM65.3581 65.5818C64.3842 65.7415 63.4972 66.1366 62.7419 66.7083V61.9032C62.7419 53.3479 69.7027 46.3871 78.2581 46.3871C86.8134 46.3871 93.7742 53.3479 93.7742 61.9032V66.7083C93.0189 66.1366 92.1319 65.7415 91.1581 65.5818C90.4086 62.7815 87.8554 60.7097 84.8226 60.7097C83.4105 60.7097 82.013 61.1765 80.8841 62.0239L78.2581 63.9919L75.6332 62.0239C74.5032 61.1765 73.1056 60.7097 71.6936 60.7097C68.6607 60.7097 66.1075 62.7815 65.3581 65.5818ZM67.5161 73.8387V67.2742C67.5161 64.9704 69.3898 63.0968 71.6936 63.0968C72.5922 63.0968 73.4815 63.394 74.2013 63.9325L78.2581 66.9758L82.316 63.9325C83.0346 63.394 83.9239 63.0968 84.8226 63.0968C87.1263 63.0968 89 64.9704 89 67.2742V73.8387C89 79.7622 84.1815 84.5806 78.2581 84.5806C72.3346 84.5806 67.5161 79.7622 67.5161 73.8387ZM78.2581 86.9677C80.4074 86.9677 82.4332 86.438 84.2258 85.5189V87.6671L78.2581 93.6348L72.2903 87.6671V85.5189C74.083 86.438 76.1087 86.9677 78.2581 86.9677ZM70.7745 89.5268L76.4176 95.1699L70.7127 99.2459L68.8933 90.1533L70.7745 89.5268ZM63.9355 108.452V101.29H61.5484V108.452H54.3871V99.2902C54.3871 96.7178 56.0271 94.442 58.4678 93.629L66.6116 90.915L69.0955 103.335L78.2581 96.7895L87.4224 103.335L89.9057 90.915L92.5806 91.8055V108.452H63.9355ZM94.9677 115.613V82.1936H116.452V89.3548H123.613V115.613H94.9677Z" fill="#00A77F"/>
<path d="M109.29 113.226H121.226V101.29H109.29V113.226ZM111.677 103.677H118.839V110.839H111.677V103.677Z" fill="#00A77F"/>
<path d="M97.3548 110.839H106.903V113.226H97.3548V110.839Z" fill="#00A77F"/>
<path d="M97.3548 106.064H106.903V108.452H97.3548V106.064Z" fill="#00A77F"/>
<path d="M97.3548 101.29H106.903V103.677H97.3548V101.29Z" fill="#00A77F"/>
<path d="M97.3548 84.5806H99.7419V86.9677H97.3548V84.5806Z" fill="#00A77F"/>
<path d="M102.129 84.5806H114.065V86.9677H102.129V84.5806Z" fill="#00A77F"/>
<path d="M97.3548 89.3547H114.065V91.7418H97.3548V89.3547Z" fill="#00A77F"/>
<path d="M118.839 94.1292H121.226V96.5162H118.839V94.1292Z" fill="#00A77F"/>
<path d="M97.3548 94.1292H116.452V96.5162H97.3548V94.1292Z" fill="#00A77F"/>
<path d="M112.871 77.4194C120.11 77.4194 126 71.5292 126 64.2904C126 61.4546 125.087 58.832 123.552 56.6839L125.686 54.3551L123.926 52.7419L121.983 54.8603C119.62 52.5758 116.41 51.1614 112.871 51.1614C105.632 51.1614 99.7419 57.0516 99.7419 64.2904C99.7419 71.5292 105.632 77.4194 112.871 77.4194ZM112.871 53.5485C115.789 53.5485 118.437 54.7216 120.374 56.6168L111.551 66.2416L106.454 62.165L104.963 64.0287L111.802 69.5005L121.895 58.4888C122.978 60.1643 123.613 62.1527 123.613 64.2904C123.613 70.2139 118.794 75.0323 112.871 75.0323C106.948 75.0323 102.129 70.2139 102.129 64.2904C102.129 58.367 106.948 53.5485 112.871 53.5485Z" fill="#00A77F"/>
<g filter="url(#filter0_d)">
<circle cx="44" cy="37" r="30" fill="white"/>
<circle cx="44" cy="37" r="29" stroke="#00A77F" stroke-width="2"/>
</g>
<path d="M50.3909 45H38.3159V42.7C41.7993 40.0667 44.1659 38.1167 45.4159 36.85C46.6826 35.5667 47.3159 34.3583 47.3159 33.225C47.3159 32.4083 47.0159 31.7833 46.4159 31.35C45.8326 30.9 45.1243 30.675 44.2909 30.675C42.4576 30.675 40.9576 31.3417 39.7909 32.675L38.0909 30.75C38.8076 29.8833 39.7076 29.225 40.7909 28.775C41.8909 28.3083 43.0409 28.075 44.2409 28.075C45.9409 28.075 47.3743 28.5333 48.5409 29.45C49.7076 30.3667 50.2909 31.625 50.2909 33.225C50.2909 34.6583 49.6909 36.0833 48.4909 37.5C47.2909 38.9167 45.4576 40.5583 42.9909 42.425H50.3909V45Z" fill="#161737"/>
<defs>
<filter id="filter0_d" x="0" y="0" width="88" height="88" filterUnits="userSpaceOnUse" color-interpolation-filters="sRGB">
<feFlood flood-opacity="0" result="BackgroundImageFix"/>
<feColorMatrix in="SourceAlpha" type="matrix" values="0 0 0 0 0 0 0 0 0 0 0 0 0 0 0 0 0 0 127 0"/>
<feOffset dy="7"/>
<feGaussianBlur stdDeviation="7"/>
<feColorMatrix type="matrix" values="0 0 0 0 0 0 0 0 0 0 0 0 0 0 0 0 0 0 0.1 0"/>
<feBlend mode="normal" in2="BackgroundImageFix" result="effect1_dropShadow"/>
<feBlend mode="normal" in="SourceGraphic" in2="effect1_dropShadow" result="shape"/>
</filter>
</defs>
</svg>
