<svg width="113" height="119" viewBox="0 0 113 119" fill="none" xmlns="http://www.w3.org/2000/svg">
<path d="M87 72.6251C88.8169 72.6251 90.4504 71.616 91.2626 69.9903L91.3808 69.753L89.3681 68.7461L89.25 68.9846C88.8214 69.8418 87.9596 70.3751 87 70.3751C86.0404 70.3751 85.1786 69.8418 84.75 68.9846L84.6319 68.7472L82.6193 69.7541L82.7374 69.9915C83.5496 71.616 85.1831 72.6251 87 72.6251Z" fill="#00A77F"/>
<path d="M112.875 96.25H108.375V89.7149C108.375 86.3804 106.897 83.254 104.318 81.1379C102.981 80.0399 101.379 79.2614 99.6832 78.8845L92.4529 77.3061L92.0884 75.541C94.155 74.119 95.5939 71.8555 95.9212 69.25H96C98.4818 69.25 100.5 67.2318 100.5 64.75C100.5 63.8421 100.225 62.9995 99.7609 62.2919C100.128 61.0172 100.5 59.4017 100.5 58C100.5 55.7196 98.7945 53.8296 96.5918 53.5382L96.0203 52.7777C94.2461 50.4119 91.4224 49 88.4659 49C87.36 49 86.2744 49.1913 85.2383 49.5693L77.8369 52.2603C75.2426 53.203 73.5 55.6915 73.5 58.4523C73.5 58.99 73.5664 59.5266 73.7014 60.0689L74.2796 62.2232C73.7891 62.9444 73.5 63.814 73.5 64.75C73.5 67.2318 75.5182 69.25 78 69.25H78.0776C78.4095 71.8937 79.8855 74.1865 82.0016 75.604L81.6214 77.125H73.7655C73.0297 77.125 72.2929 76.9517 71.6347 76.6221C70.0091 75.8099 69 74.1764 69 72.3595V68.5919L69.603 67.99C70.665 66.9269 71.25 65.5139 71.25 64.0109V61.375C71.25 59.9102 70.3061 58.6728 69 58.207V56.875C69 53.7734 66.4766 51.25 63.375 51.25C60.2734 51.25 57.75 53.7734 57.75 56.875V63.5451C57.75 64.903 58.1494 66.2001 58.893 67.3038C58.2135 67.6919 57.75 68.4141 57.75 69.25V72.7285C57.75 77.9721 60.3544 82.8389 64.7171 85.747C66.9907 87.2635 69.594 88.15 72.375 88.3379V93.4926C71.8721 94.3656 71.4514 95.2881 71.1094 96.2511H61.125V103.001H65.625V118.751H108.375V103H112.875V96.25ZM102.891 82.8783C104.946 84.5646 106.125 87.0565 106.125 89.7149V96.25H102.891C101.772 93.1011 99.7496 90.3865 97.1295 88.4099L98.088 80.8398L99.1984 81.0827C100.547 81.382 101.824 82.003 102.891 82.8783ZM78.9821 87.0306L78.1609 79.6382L80.7225 86.224C80.1262 86.4636 79.5424 86.7269 78.9821 87.0306ZM87.0461 84.0438L88.8382 85.1046C88.2341 85.0394 87.6221 85 87 85C86.4465 85 85.8997 85.0304 85.3597 85.0833L87.0461 84.0438ZM95.8808 80.3582L95.0347 87.0385C94.5397 86.7696 94.0301 86.5266 93.507 86.3072L95.7244 80.3234L95.8808 80.3582ZM93.5048 79.8396L91.8577 84.2868L88.8067 82.5036L91.8577 79.4796L93.5048 79.8396ZM88.2847 62.5H85.7153C85.6129 62.1051 85.4565 61.735 85.2574 61.3907C86.757 60.8305 88.1149 59.9271 89.2016 58.7481C89.5144 59.1374 89.8665 59.4884 90.2265 59.8315C89.2759 60.4345 88.575 61.3829 88.2847 62.5ZM79.125 63.625C79.125 62.3841 80.1341 61.375 81.375 61.375C82.6159 61.375 83.625 62.3841 83.625 63.625C83.625 64.8659 82.6159 65.875 81.375 65.875C80.1341 65.875 79.125 64.8659 79.125 63.625ZM92.625 61.375C93.8659 61.375 94.875 62.3841 94.875 63.625C94.875 64.8659 93.8659 65.875 92.625 65.875C91.3841 65.875 90.375 64.8659 90.375 63.625C90.375 62.3841 91.3841 61.375 92.625 61.375ZM96 67V66.5702C96.6919 65.7794 97.125 64.7568 97.125 63.625C97.125 63.3302 97.0924 63.0445 97.0384 62.7655C97.755 63.1424 98.25 63.886 98.25 64.75C98.25 65.9909 97.2409 67 96 67ZM78.6064 54.373L86.0077 51.682C86.7964 51.3963 87.6233 51.25 88.4659 51.25C90.7181 51.25 92.8702 52.3255 94.2214 54.1289L95.4375 55.75H96C97.2409 55.75 98.25 56.7591 98.25 58C98.25 58.8291 98.0723 59.8068 97.8675 60.6674C97.296 60.4053 96.6683 60.25 96 60.25H95.5703C94.8525 59.6234 93.9424 59.2262 92.9344 59.1565C91.9568 58.4871 91.122 57.6546 90.4627 56.6669L89.25 54.8466L88.314 56.2506C87.1665 57.9719 85.3721 59.1745 83.3561 59.6042C82.7565 59.3073 82.0894 59.125 81.375 59.125C80.2444 59.125 79.2218 59.5581 78.4298 60.25H78C77.3531 60.25 76.7411 60.3929 76.1842 60.6404L75.8794 59.5052C75.7939 59.1599 75.75 58.8066 75.75 58.4523C75.75 56.6343 76.8986 54.9951 78.6064 54.373ZM75.75 64.75C75.75 63.886 76.245 63.1424 76.9616 62.7655C76.9076 63.0445 76.875 63.3302 76.875 63.625C76.875 64.7556 77.3081 65.7782 78 66.5702V67C76.7591 67 75.75 65.9909 75.75 64.75ZM80.25 68.125V67.9653C80.6122 68.0597 80.9846 68.125 81.375 68.125C83.4653 68.125 85.2124 66.6861 85.7153 64.75H88.2847C88.7876 66.6861 90.5347 68.125 92.625 68.125C93.0154 68.125 93.3877 68.0597 93.75 67.9653V68.125C93.75 71.8476 90.7226 74.875 87 74.875C83.2774 74.875 80.25 71.8476 80.25 68.125ZM87 77.125C88.0564 77.125 89.0666 76.9326 90.0094 76.5963L90.276 77.8832L87 81.1593L83.7465 77.9046L84.0671 76.6233C84.9874 76.9428 85.9718 77.125 87 77.125ZM82.0343 79.375L85.1978 82.5385L82.3785 84.2755L80.4727 79.375H82.0343ZM60 56.875C60 55.0142 61.5143 53.5 63.375 53.5C65.2358 53.5 66.75 55.0142 66.75 56.875V58.207C65.4439 58.6728 64.5 59.9102 64.5 61.375V62.5H66.75V61.375C66.75 60.754 67.2551 60.25 67.875 60.25C68.4949 60.25 69 60.754 69 61.375V64.0109C69 64.9131 68.649 65.7614 68.0122 66.3981L67.4093 67H61.5907L61.3185 66.7277C60.468 65.8772 60 64.7466 60 63.5451V56.875ZM74.5215 86.125H73.3965C70.7426 86.125 68.1731 85.3476 65.9659 83.875C62.2298 81.3854 60 77.2184 60 72.7285V69.25H66.75V72.3595C66.75 75.0347 68.2361 77.4389 70.629 78.6347C71.5976 79.1185 72.6821 79.375 73.7655 79.375H75.8681L76.8716 88.4099C76.0627 89.0196 75.3113 89.6991 74.625 90.4416V87.25L74.5215 86.125ZM87 87.25C95.064 87.25 101.625 93.811 101.625 101.875C101.625 109.939 95.064 116.5 87 116.5C78.936 116.5 72.375 109.939 72.375 101.875C72.375 93.811 78.936 87.25 87 87.25ZM63.375 98.5H70.4648C70.3151 99.2324 70.2319 99.9873 70.1812 100.75H63.375V98.5ZM67.875 116.5V103H70.1824C70.566 108.778 73.8589 113.762 78.6176 116.5H67.875ZM106.125 116.5H95.3824C100.14 113.762 103.434 108.778 103.818 103H106.125V116.5ZM110.625 100.75H103.818C103.767 99.9873 103.684 99.2324 103.534 98.5H110.625V100.75Z" fill="#00A77F"/>
<path d="M81.375 107.5C82.6159 107.5 83.625 106.491 83.625 105.25V101.609L80.9453 96.25H85.875V109.75H81.375V112H92.625V109.75H88.125V96.25H93.0548L90.375 101.609V105.25C90.375 106.491 91.3841 107.5 92.625 107.5H97.125C98.3659 107.5 99.375 106.491 99.375 105.25V101.609L95.5702 94H88.125V91.75H85.875V94H78.4297L74.625 101.609V105.25C74.625 106.491 75.6341 107.5 76.875 107.5H81.375ZM92.625 105.25V103H97.125V105.25H92.625ZM96.4298 100.75H93.3202L94.875 97.6405L96.4298 100.75ZM76.875 105.25V103H81.375V105.25H76.875ZM79.125 97.6405L80.6797 100.75H77.5703L79.125 97.6405Z" fill="#00A77F"/>
<g filter="url(#filter0_d)">
<circle cx="44" cy="37" r="30" fill="white"/>
<circle cx="44" cy="37" r="29" stroke="#00A77F" stroke-width="2"/>
</g>
<path d="M44.2223 45.3C42.8056 45.3 41.5473 45.05 40.4473 44.55C39.3639 44.05 38.5223 43.4 37.9223 42.6L39.4973 40.675C40.0306 41.2917 40.7139 41.7833 41.5473 42.15C42.3806 42.5167 43.2389 42.7 44.1223 42.7C45.2056 42.7 46.0556 42.475 46.6723 42.025C47.2889 41.5583 47.5973 40.9333 47.5973 40.15C47.5973 38.5833 46.3639 37.8 43.8973 37.8C42.7806 37.8 42.1389 37.8083 41.9723 37.825V35.2C42.1723 35.2167 42.8139 35.225 43.8973 35.225C44.9306 35.225 45.7556 35.0417 46.3723 34.675C47.0056 34.3083 47.3223 33.7583 47.3223 33.025C47.3223 32.275 47.0056 31.7 46.3723 31.3C45.7389 30.8833 44.9306 30.675 43.9473 30.675C42.3139 30.675 40.8806 31.2917 39.6473 32.525L38.1473 30.7C39.6306 28.95 41.6556 28.075 44.2223 28.075C46.0389 28.075 47.4973 28.4833 48.5973 29.3C49.6973 30.1 50.2473 31.1917 50.2473 32.575C50.2473 33.6083 49.8806 34.4667 49.1473 35.15C48.4306 35.8167 47.5889 36.2333 46.6223 36.4C47.5723 36.4833 48.4556 36.8833 49.2723 37.6C50.0889 38.3167 50.4973 39.2667 50.4973 40.45C50.4973 41.8833 49.9223 43.05 48.7723 43.95C47.6389 44.85 46.1223 45.3 44.2223 45.3Z" fill="#161737"/>
<defs>
<filter id="filter0_d" x="0" y="0" width="88" height="88" filterUnits="userSpaceOnUse" color-interpolation-filters="sRGB">
<feFlood flood-opacity="0" result="BackgroundImageFix"/>
<feColorMatrix in="SourceAlpha" type="matrix" values="0 0 0 0 0 0 0 0 0 0 0 0 0 0 0 0 0 0 127 0"/>
<feOffset dy="7"/>
<feGaussianBlur stdDeviation="7"/>
<feColorMatrix type="matrix" values="0 0 0 0 0 0 0 0 0 0 0 0 0 0 0 0 0 0 0.1 0"/>
<feBlend mode="normal" in2="BackgroundImageFix" result="effect1_dropShadow"/>
<feBlend mode="normal" in="SourceGraphic" in2="effect1_dropShadow" result="shape"/>
</filter>
</defs>
</svg>
