<svg width="18" height="24" viewBox="0 0 18 24" fill="none" xmlns="http://www.w3.org/2000/svg">
<path d="M6.50406 5.468C7.28106 5.17 8.12006 5 9.00006 5C12.8591 5 16.0001 8.14 16.0001 12C16.0001 12.88 15.8301 13.72 15.5321 14.496L17.0461 16.01C17.6511 14.801 18.0001 13.442 18.0001 12C18.0001 7.038 13.9631 3 9.00006 3C7.76006 3 6.58206 3.258 5.50806 3.715L6.50406 5.468Z" fill="#00A77F"/>
<path d="M11.496 18.532C10.719 18.83 9.88 19 9 19C5.141 19 2 15.86 2 12C2 11.12 2.17 10.28 2.468 9.50399L0.954 7.98999C0.349 9.19899 0 10.558 0 12C0 16.962 4.037 21 9 21C10.276 21 11.486 20.727 12.586 20.245L11.496 18.532Z" fill="#00A77F"/>
<path d="M13 20L9 24V16L13 20Z" fill="#00A77F"/>
<path d="M5 4L9 0V8L5 4Z" fill="#00A77F"/>
</svg>
