<svg width="13" height="21" viewBox="0 0 13 21" fill="none" xmlns="http://www.w3.org/2000/svg">
<path d="M6.37485 3.17636C7.59567 3.17636 8.5887 4.18291 8.5887 5.42035C8.5887 6.65676 7.59541 7.66331 6.37485 7.66331C5.15481 7.66331 4.16152 6.65676 4.16152 5.42035C4.16126 4.18265 5.15506 3.17636 6.37485 3.17636ZM6.37485 10.8381C9.32375 10.8381 11.7219 8.40811 11.7219 5.42035C11.7219 2.43104 9.32401 0 6.37485 0C3.42621 0 1.02783 2.4313 1.02783 5.42035C1.02783 8.40811 3.42621 10.8381 6.37485 10.8381ZM8.53803 15.2589C9.63799 15.005 10.6877 14.5644 11.6428 13.9558C11.9944 13.7316 12.2437 13.375 12.3359 12.9644C12.4281 12.5539 12.3557 12.123 12.1344 11.7666C12.025 11.5899 11.8823 11.4369 11.7145 11.3162C11.5467 11.1955 11.3571 11.1095 11.1565 11.0631C10.9559 11.0168 10.7482 11.011 10.5453 11.046C10.3425 11.0811 10.1485 11.1563 9.97434 11.2675C7.78378 12.6634 4.96439 12.6624 2.77562 11.2675C2.60153 11.1563 2.40751 11.081 2.20469 11.046C2.00186 11.0109 1.7942 11.0167 1.59359 11.063C1.39298 11.1094 1.20336 11.1954 1.03557 11.3161C0.867787 11.4368 0.725134 11.5899 0.615776 11.7666C0.394496 12.1229 0.321901 12.5537 0.413958 12.9642C0.506014 13.3748 0.755182 13.7315 1.10666 13.9558C2.06168 14.5642 3.11118 15.0048 4.21091 15.2589L1.22183 18.2892C0.928089 18.5871 0.763106 18.991 0.763178 19.4121C0.76325 19.8333 0.928371 20.2372 1.22222 20.5349C1.51606 20.8326 1.91456 20.9999 2.33005 20.9998C2.74554 20.9997 3.14399 20.8324 3.43773 20.5345L6.37434 17.5574L9.31275 20.5348C9.45803 20.6823 9.63058 20.7993 9.82052 20.8791C10.0105 20.9589 10.2141 21 10.4197 21C10.6253 21 10.8289 20.9589 11.0188 20.8791C11.2088 20.7993 11.3813 20.6823 11.5266 20.5348C11.6723 20.3875 11.7879 20.2126 11.8668 20.0199C11.9457 19.8273 11.9863 19.6208 11.9863 19.4123C11.9863 19.2037 11.9457 18.9972 11.8668 18.8046C11.7879 18.6119 11.6723 18.437 11.5266 18.2897L8.53803 15.2589Z" fill="#F7931E"/>
</svg>
