<svg width="23" height="18" viewBox="0 0 23 18" fill="none" xmlns="http://www.w3.org/2000/svg">
<path d="M22.375 2.13818C21.566 2.48965 20.6855 2.74261 19.7787 2.84113C20.7202 2.2778 21.4253 1.38782 21.7616 0.338176C20.8781 0.867496 19.9102 1.23866 18.9009 1.43522C18.479 0.981027 17.9688 0.6192 17.4021 0.372279C16.8353 0.125359 16.2241 -0.00136274 15.6066 1.10514e-05C13.1081 1.10514e-05 11.0987 2.03965 11.0987 4.54261C11.0987 4.89409 11.141 5.24557 11.2098 5.58374C7.46862 5.38669 4.132 3.58669 1.91376 0.83078C1.50957 1.52606 1.29776 2.31771 1.30037 3.12338C1.30037 4.69971 2.09619 6.08965 3.30974 6.90711C2.59458 6.87874 1.89616 6.68077 1.27129 6.3293V6.38521C1.27129 8.59261 2.82062 10.4219 4.88552 10.8426C4.49781 10.944 4.09897 10.9959 3.6984 10.997C3.40492 10.997 3.12731 10.9678 2.84706 10.9278C3.41814 12.7278 5.08116 14.0352 7.06146 14.0778C5.51212 15.3 3.57149 16.0189 1.46429 16.0189C1.08621 16.0189 0.737216 16.0056 0.375 15.963C2.3738 17.2544 4.74539 18 7.29941 18C15.5907 18 20.1277 11.0823 20.1277 5.07782C20.1277 4.88078 20.1277 4.68374 20.1145 4.48669C20.9922 3.83965 21.7616 3.03817 22.375 2.13818Z" fill="#55ACEE"/>
</svg>
