<svg width="25" height="14" viewBox="0 0 25 14" fill="none" xmlns="http://www.w3.org/2000/svg">
<path d="M20.2907 8.028C19.9027 7.538 20.0137 7.32 20.2907 6.882C20.2957 6.877 23.4988 2.451 23.8288 0.95L23.8308 0.949C23.9948 0.402 23.8308 0 23.0378 0H20.4137C19.7457 0 19.4377 0.345 19.2727 0.731C19.2727 0.731 17.9366 3.929 16.0465 6.002C15.4365 6.601 15.1545 6.793 14.8215 6.793C14.6575 6.793 14.4025 6.601 14.4025 6.054V0.949C14.4025 0.293 14.2155 0 13.6625 0H9.53632C9.1173 0 8.86829 0.306 8.86829 0.591C8.86829 1.213 9.81333 1.356 9.91133 3.106V6.903C9.91133 7.735 9.76033 7.888 9.42531 7.888C8.53328 7.888 6.36821 4.677 5.08516 1.002C4.82615 0.289 4.57315 0.000999928 3.90012 0.000999928H1.27503C0.526005 0.000999928 0.375 0.346 0.375 0.732C0.375 1.414 1.26703 4.805 4.52314 9.285C6.69322 12.343 9.74933 14 12.5294 14C14.2005 14 14.4045 13.632 14.4045 12.999C14.4045 10.077 14.2535 9.801 15.0905 9.801C15.4785 9.801 16.1465 9.993 17.7066 11.468C19.4897 13.217 19.7827 14 20.7807 14H23.4048C24.1528 14 24.5318 13.632 24.3138 12.906C23.8148 11.379 20.4427 8.238 20.2907 8.028Z" fill="#4476A6"/>
</svg>
