<svg width="23" height="21" viewBox="0 0 23 21" fill="none" xmlns="http://www.w3.org/2000/svg">
<path d="M22.9563 14.4498C22.9563 13.5686 22.3944 12.8172 21.6121 12.5381V5.544L23 4.98607L11.4851 0.357178L0 4.98607L5.43633 7.17711V10.394C5.43633 11.3856 6.12759 12.2794 7.38275 12.9106C8.48984 13.4673 9.94683 13.7739 11.4854 13.7739C13.024 13.7739 14.481 13.4673 15.5881 12.9106C16.8432 12.2794 17.5345 11.3857 17.5345 10.394V7.18316L20.2678 6.08439V12.5382C19.4855 12.8172 18.9235 13.5686 18.9235 14.4499C18.9235 15.2561 19.3937 15.9538 20.0728 16.2804L18.958 19.6439L20.2333 20.0715L20.9399 17.9395L21.6466 20.0715L22.9218 19.6439L21.8071 16.2804C22.4861 15.9537 22.9563 15.256 22.9563 14.4498ZM16.1903 10.3939C16.1903 11.3512 14.1782 12.4218 11.4854 12.4218C8.79266 12.4218 6.78062 11.3512 6.78062 10.3939V7.71886L11.4851 9.61497L16.1903 7.72347V10.3939H16.1903ZM11.4858 8.15878L3.61373 4.98607L11.4858 1.81337L19.3781 4.98607L11.4858 8.15878ZM20.9399 15.1258C20.5693 15.1258 20.2678 14.8226 20.2678 14.4498C20.2678 14.0771 20.5693 13.7739 20.9399 13.7739C21.3105 13.7739 21.6121 14.0771 21.6121 14.4498C21.6121 14.8226 21.3105 15.1258 20.9399 15.1258Z" fill="#00A77F"/>
</svg>
