<svg width="15" height="20" viewBox="0 0 15 20" fill="none" xmlns="http://www.w3.org/2000/svg">
<mask id="path-1-inside-1" fill="white">
<path fill-rule="evenodd" clip-rule="evenodd" d="M7.08908 19.4577C7.08908 19.4577 14.0712 11.1597 14.0712 7.30355C14.0712 3.44742 10.9452 0.321411 7.08908 0.321411C3.23295 0.321411 0.106934 3.44742 0.106934 7.30355C0.106934 11.1597 7.08908 19.4577 7.08908 19.4577ZM7.0875 9.53608C8.32147 9.53608 9.32179 8.53575 9.32179 7.30179C9.32179 6.06783 8.32147 5.0675 7.0875 5.0675C5.85354 5.0675 4.85322 6.06783 4.85322 7.30179C4.85322 8.53575 5.85354 9.53608 7.0875 9.53608Z"/>
</mask>
<path d="M7.08908 19.4577L5.83202 20.5154L7.08908 22.0093L8.34614 20.5154L7.08908 19.4577ZM12.4284 7.30355C12.4284 7.86549 12.1439 8.81801 11.5084 10.0997C10.901 11.3246 10.0747 12.6535 9.22338 13.9003C8.3761 15.1412 7.52559 16.2697 6.88523 17.0897C6.56569 17.4988 6.30001 17.8292 6.11523 18.0561C6.02287 18.1695 5.95082 18.257 5.90247 18.3153C5.87829 18.3445 5.86005 18.3664 5.84817 18.3806C5.84222 18.3878 5.83787 18.393 5.83516 18.3962C5.83381 18.3978 5.83286 18.3989 5.83234 18.3995C5.83207 18.3999 5.83192 18.4001 5.83186 18.4001C5.83183 18.4001 5.83187 18.4001 5.83186 18.4001C5.83193 18.4 5.83202 18.3999 7.08908 19.4577C8.34614 20.5154 8.34628 20.5152 8.34645 20.515C8.34655 20.5149 8.34674 20.5147 8.34693 20.5144C8.3473 20.514 8.34778 20.5134 8.34836 20.5127C8.34952 20.5113 8.35111 20.5095 8.35311 20.5071C8.35711 20.5023 8.36278 20.4955 8.37005 20.4868C8.38458 20.4694 8.40555 20.4443 8.43251 20.4117C8.48644 20.3466 8.56439 20.252 8.66295 20.131C8.86 19.889 9.13981 19.541 9.47484 19.112C10.1436 18.2556 11.0387 17.0686 11.9369 15.753C12.8312 14.4433 13.7503 12.9747 14.4521 11.5592C15.1258 10.2005 15.7141 8.66968 15.7141 7.30355H12.4284ZM7.08908 1.96427C10.0379 1.96427 12.4284 4.35475 12.4284 7.30355H15.7141C15.7141 2.5401 11.8525 -1.32145 7.08908 -1.32145V1.96427ZM1.74979 7.30355C1.74979 4.35475 4.14027 1.96427 7.08908 1.96427V-1.32145C2.32562 -1.32145 -1.53592 2.5401 -1.53592 7.30355H1.74979ZM7.08908 19.4577C8.34614 18.3999 8.34623 18.4 8.34629 18.4001C8.34628 18.4001 8.34632 18.4001 8.34629 18.4001C8.34624 18.4001 8.34608 18.3999 8.34582 18.3995C8.34529 18.3989 8.34435 18.3978 8.34299 18.3962C8.34028 18.393 8.33593 18.3878 8.32999 18.3806C8.3181 18.3664 8.29986 18.3445 8.27569 18.3153C8.22733 18.257 8.15528 18.1695 8.06292 18.0561C7.87814 17.8292 7.61246 17.4988 7.29292 17.0897C6.65256 16.2697 5.80206 15.1412 4.95477 13.9003C4.1035 12.6535 3.27711 11.3246 2.66977 10.0997C2.0343 8.81801 1.74979 7.86549 1.74979 7.30355H-1.53592C-1.53592 8.66968 -0.947667 10.2005 -0.273979 11.5592C0.427826 12.9747 1.34698 14.4433 2.24124 15.753C3.13949 17.0686 4.03452 18.2556 4.70331 19.112C5.03835 19.541 5.31815 19.889 5.5152 20.131C5.61376 20.252 5.69172 20.3466 5.74564 20.4117C5.77261 20.4443 5.79357 20.4694 5.80811 20.4868C5.81538 20.4955 5.82104 20.5023 5.82504 20.5071C5.82704 20.5095 5.82863 20.5113 5.82979 20.5127C5.83038 20.5134 5.83085 20.514 5.83122 20.5144C5.83141 20.5147 5.83161 20.5149 5.8317 20.515C5.83187 20.5152 5.83202 20.5154 7.08908 19.4577ZM7.67893 7.30179C7.67893 7.62843 7.41414 7.89322 7.0875 7.89322V11.1789C9.22879 11.1789 10.9646 9.44308 10.9646 7.30179H7.67893ZM7.0875 6.71036C7.41414 6.71036 7.67893 6.97515 7.67893 7.30179H10.9646C10.9646 5.1605 9.22879 3.42465 7.0875 3.42465V6.71036ZM6.49608 7.30179C6.49608 6.97515 6.76087 6.71036 7.0875 6.71036V3.42465C4.94622 3.42465 3.21036 5.1605 3.21036 7.30179H6.49608ZM7.0875 7.89322C6.76087 7.89322 6.49608 7.62843 6.49608 7.30179H3.21036C3.21036 9.44308 4.94622 11.1789 7.0875 11.1789V7.89322Z" fill="#00A77F" mask="url(#path-1-inside-1)"/>
</svg>
