<svg width="17" height="17" viewBox="0 0 17 17" fill="none" xmlns="http://www.w3.org/2000/svg">
<path d="M8.49993 0.25C3.97304 0.25 0.285645 3.93739 0.285645 8.46429C0.285645 12.9912 3.97304 16.6786 8.49993 16.6786C13.0268 16.6786 16.7142 12.9912 16.7142 8.46429C16.7142 3.93739 13.0268 0.25 8.49993 0.25ZM8.49993 1.89286C12.139 1.89286 15.0714 4.82526 15.0714 8.46429C15.0714 12.1033 12.139 15.0357 8.49993 15.0357C4.8609 15.0357 1.9285 12.1033 1.9285 8.46429C1.9285 4.82526 4.8609 1.89286 8.49993 1.89286ZM7.6785 3.53571V8.80441L11.2049 12.3308L12.3664 11.1692L9.32136 8.12416V3.53571H7.6785Z" fill="#00A77F"/>
</svg>
