<svg width="18" height="16" viewBox="0 0 18 16" fill="none" xmlns="http://www.w3.org/2000/svg">
<path d="M8.99967 0C4.21301 0 0.333008 3.28333 0.333008 7.33333C0.333008 9.11743 1.08782 10.7507 2.33952 12.0221C2.36479 12.085 3.00702 13.7378 1.10514 15.4232C1.07183 15.4544 1.04528 15.4921 1.02714 15.534C1.00899 15.5759 0.999647 15.621 0.999674 15.6667C0.999674 15.7551 1.03479 15.8399 1.09731 15.9024C1.15982 15.9649 1.2446 16 1.33301 16C1.35709 16 1.3811 15.9974 1.40462 15.9922C3.32186 15.8786 4.96198 14.9272 5.96322 14.194C6.90948 14.4941 7.92956 14.6667 8.99967 14.6667C13.7863 14.6667 17.6663 11.3833 17.6663 7.33333C17.6663 3.28333 13.7863 0 8.99967 0Z" fill="#00A77F"/>
</svg>
