<svg width="50" height="50" viewBox="0 0 50 50" fill="none" xmlns="http://www.w3.org/2000/svg">
<circle cx="25" cy="25" r="25" fill="#FF4F59"/>
<path d="M33.261 23.309H24.934V26.76H29.726C29.28 28.953 27.413 30.213 24.934 30.213C24.2404 30.2142 23.5533 30.0785 22.9122 29.8135C22.2711 29.5486 21.6887 29.1597 21.1982 28.6691C20.7078 28.1786 20.319 27.5961 20.0542 26.9549C19.7894 26.3138 19.6537 25.6267 19.655 24.933C19.6539 24.2395 19.7896 23.5525 20.0545 22.9115C20.3193 22.2704 20.7081 21.688 21.1986 21.1976C21.689 20.7071 22.2714 20.3183 22.9125 20.0535C23.5535 19.7886 24.2405 19.6529 24.934 19.654C26.193 19.654 27.331 20.101 28.224 20.832L30.824 18.233C29.24 16.852 27.209 16 24.934 16C23.7598 15.9966 22.5966 16.2253 21.5111 16.6731C20.4256 17.1209 19.4394 17.7788 18.6091 18.6091C17.7788 19.4394 17.1209 20.4256 16.6731 21.5111C16.2254 22.5966 15.9966 23.7598 16 24.934C15.9965 26.1083 16.2251 27.2716 16.6728 28.3571C17.1206 29.4427 17.7785 30.429 18.6088 31.2593C19.4391 32.0896 20.4254 32.7475 21.5109 33.1952C22.5965 33.643 23.7598 33.8716 24.934 33.868C29.401 33.868 33.463 30.619 33.463 24.934C33.463 24.406 33.382 23.837 33.261 23.309Z" fill="white"/>
</svg>
