<svg width="50" height="50" viewBox="0 0 50 50" fill="none" xmlns="http://www.w3.org/2000/svg">
<circle cx="25" cy="25" r="25" fill="#4476A6"/>
<path d="M32.9157 26.028C32.5277 25.538 32.6387 25.32 32.9157 24.882C32.9207 24.877 36.1238 20.451 36.4538 18.95L36.4558 18.949C36.6198 18.402 36.4558 18 35.6628 18H33.0387C32.3707 18 32.0627 18.345 31.8977 18.731C31.8977 18.731 30.5616 21.929 28.6715 24.002C28.0615 24.601 27.7795 24.793 27.4465 24.793C27.2825 24.793 27.0275 24.601 27.0275 24.054V18.949C27.0275 18.293 26.8405 18 26.2875 18H22.1613C21.7423 18 21.4933 18.306 21.4933 18.591C21.4933 19.213 22.4383 19.356 22.5363 21.106V24.903C22.5363 25.735 22.3853 25.888 22.0503 25.888C21.1583 25.888 18.9932 22.677 17.7102 19.002C17.4512 18.289 17.1981 18.001 16.5251 18.001H13.9C13.151 18.001 13 18.346 13 18.732C13 19.414 13.892 22.805 17.1481 27.285C19.3182 30.343 22.3743 32 25.1544 32C26.8255 32 27.0295 31.632 27.0295 30.999C27.0295 28.077 26.8785 27.801 27.7155 27.801C28.1035 27.801 28.7715 27.993 30.3316 29.468C32.1147 31.217 32.4077 32 33.4057 32H36.0298C36.7778 32 37.1568 31.632 36.9388 30.906C36.4398 29.379 33.0677 26.238 32.9157 26.028Z" fill="white"/>
</svg>
