<svg width="25" height="25" viewBox="0 0 25 25" fill="none" xmlns="http://www.w3.org/2000/svg">
<path d="M24.1463 20.7927C24.1463 22.6452 22.6452 24.1463 20.7927 24.1463H3.35366C1.50177 24.1463 0 22.6452 0 20.7927V3.35366C0 1.5011 1.50177 0 3.35366 0H20.7927C22.6452 0 24.1463 1.5011 24.1463 3.35366V20.7927Z" fill="#3F51B5"/>
<path d="M19.0273 12.7441H16.7683V21.4636H13.4147V12.7441H11.4025V10.0612H13.4147V8.4447C13.416 6.09178 14.3933 4.69531 17.1654 4.69531H19.4512V7.37824H17.9173C16.8381 7.37824 16.7683 7.78068 16.7683 8.53391V10.0612H19.4512L19.0273 12.7441Z" fill="white"/>
</svg>
