<svg width="25" height="25" viewBox="0 0 25 25" fill="none" xmlns="http://www.w3.org/2000/svg">
<path d="M2.4287 1.67641C0.536648 3.6413 0.923886 5.72857 0.923886 12.0696C0.923886 17.3354 0.00494808 22.6142 4.81432 23.857C6.31612 24.2431 19.6227 24.2431 21.1225 23.855C23.1249 23.3384 24.7541 21.7145 24.9768 18.883C25.0079 18.4879 25.0079 5.65836 24.9758 5.25515C24.739 2.2391 22.8821 0.50088 20.4353 0.148823C19.8745 0.0675793 19.7621 0.043507 16.8849 0.038492C6.67928 0.043507 4.44213 -0.410857 2.4287 1.67641Z" fill="url(#paint0_linear)"/>
<path d="M12.9597 3.1868C9.31707 3.1868 5.85801 2.86283 4.53679 6.253C3.99105 7.6532 4.0703 9.47166 4.0703 12.0755C4.0703 14.3603 3.99706 16.5078 4.53679 17.8969C5.855 21.2891 9.34215 20.9642 12.9577 20.9642C16.4459 20.9642 20.0424 21.3272 21.3796 17.8969C21.9264 16.4827 21.8461 14.6913 21.8461 12.0755C21.8461 8.60306 22.0377 6.36133 20.3534 4.67828C18.6479 2.97316 16.3415 3.1868 12.9557 3.1868H12.9597ZM12.1632 4.78861C19.7615 4.77657 20.7286 3.93204 20.1949 15.6642C20.0052 19.8137 16.8451 19.3583 12.9607 19.3583C5.87808 19.3583 5.67443 19.1557 5.67443 12.0715C5.67443 4.90496 6.23622 4.79262 12.1632 4.7866V4.78861ZM17.7049 6.26403C17.116 6.26403 16.6385 6.74147 16.6385 7.33024C16.6385 7.919 17.116 8.39643 17.7049 8.39643C18.2938 8.39643 18.7713 7.919 18.7713 7.33024C18.7713 6.74147 18.2938 6.26403 17.7049 6.26403ZM12.9597 7.51078C10.4387 7.51078 8.39513 9.55491 8.39513 12.0755C8.39513 14.596 10.4387 16.6392 12.9597 16.6392C15.4808 16.6392 17.5233 14.596 17.5233 12.0755C17.5233 9.55491 15.4808 7.51078 12.9597 7.51078ZM12.9597 9.11258C16.8772 9.11258 16.8823 15.0384 12.9597 15.0384C9.0432 15.0384 9.03718 9.11258 12.9597 9.11258Z" fill="white"/>
<defs>
<linearGradient id="paint0_linear" x1="2.47486" y1="22.5732" x2="24.8481" y2="3.20564" gradientUnits="userSpaceOnUse">
<stop stop-color="#FFDD55"/>
<stop offset="0.5" stop-color="#FF543E"/>
<stop offset="1" stop-color="#C837AB"/>
</linearGradient>
</defs>
</svg>
