<svg width="82" height="82" viewBox="0 0 82 82" fill="none" xmlns="http://www.w3.org/2000/svg">
<path d="M76.6229 8.06558H60.4918V6.72132C60.4918 3.0095 57.4823 0 53.7704 0C50.0586 0 47.0491 3.0095 47.0491 6.72132V8.06558H33.6065V10.7541H39.0833C38.763 11.3127 38.5457 11.9244 38.4407 12.5591L38.2924 13.4426H32.2622C31.5199 13.4426 30.918 14.0445 30.918 14.7869V16.1312H37.8447L37.6583 17.2549C37.5933 17.6448 37.703 18.0432 37.9583 18.3445C38.2136 18.6457 38.5884 18.8197 38.9835 18.8197H68.5573C68.9525 18.8197 69.3273 18.6457 69.5826 18.3445C69.8379 18.0432 69.9475 17.6448 69.8826 17.2549L69.6962 16.1312H73.9344V63.1804H65.8688C65.1264 63.1804 64.5245 63.7823 64.5245 64.5246V72.5902H36.295V75.2787H75.2786C76.021 75.2787 76.6229 74.6768 76.6229 73.9345V14.7869C76.6229 14.0445 76.021 13.4426 75.2786 13.4426H69.2485L69.1002 12.5591C68.9951 11.9244 68.7779 11.3127 68.4576 10.7541H76.6229C78.1076 10.7541 79.3114 11.9579 79.3114 13.4426V75.2787C79.3114 76.7635 78.1076 77.9673 76.6229 77.9673H38.9835V80.6558H76.6229C79.5924 80.6558 82 78.2482 82 75.2787V13.4426C82 10.4732 79.5924 8.06558 76.6229 8.06558ZM67.2131 65.8689H72.0335L67.2131 70.6893V65.8689ZM73.9344 72.5902H69.1139L73.9344 67.7698V72.5902ZM40.57 16.1312L41.0912 13.0002C41.3078 11.7032 42.4302 10.7534 43.7449 10.7541H48.3934C49.1358 10.7541 49.7377 10.1522 49.7377 9.40984V6.72132C49.7377 4.49422 51.5433 2.68853 53.7704 2.68853C55.9975 2.68853 57.8032 4.49422 57.8032 6.72132V9.40984C57.8032 10.1522 58.4051 10.7541 59.1475 10.7541H63.796C65.1107 10.7534 66.2331 11.7032 66.4497 13.0002L66.9709 16.1312H40.57Z" fill="#00A77F"/>
<path d="M41.6722 30.4139H51.082V33.1025H41.6722V30.4139Z" fill="#00A77F"/>
<path d="M53.7704 30.4139H68.5573V33.1025H53.7704V30.4139Z" fill="#00A77F"/>
<path d="M41.6722 35.791H47.0492V38.4795H41.6722V35.791Z" fill="#00A77F"/>
<path d="M49.7377 35.791H68.5574V38.4795H49.7377V35.791Z" fill="#00A77F"/>
<path d="M41.6722 43.8566H68.5574V46.5451H41.6722V43.8566Z" fill="#00A77F"/>
<path d="M41.6722 49.2336H57.8033V51.9222H41.6722V49.2336Z" fill="#00A77F"/>
<path d="M60.4918 49.2336H68.5574V51.9222H60.4918V49.2336Z" fill="#00A77F"/>
<path d="M36.2951 57.2992H38.9837V59.9878H36.2951V57.2992Z" fill="#00A77F"/>
<path d="M41.6722 57.2992H68.5574V59.9878H41.6722V57.2992Z" fill="#00A77F"/>
<path d="M41.6722 62.6763H49.7378V65.3648H41.6722V62.6763Z" fill="#00A77F"/>
<path d="M52.4263 62.6763H60.4918V65.3648H52.4263V62.6763Z" fill="#00A77F"/>
<path d="M43.0164 23.6926H53.7706V26.3812H43.0164V23.6926Z" fill="#00A77F"/>
<path d="M56.4591 23.6926H61.8362V26.3812H56.4591V23.6926Z" fill="#00A77F"/>
<path d="M51.0821 6.21722H53.7706V8.90575H51.0821V6.21722Z" fill="#00A77F"/>
<path d="M1.34426 68.0533H13.4426V75.7159L10.9799 79.41C10.7068 79.8222 10.6826 80.3512 10.9162 80.7871C11.1499 81.2229 11.6041 81.4953 12.0984 81.4959H33.6066C34.1021 81.4959 34.5583 81.2229 34.792 80.7857C35.0257 80.3486 35.0001 79.8182 34.725 79.4054L32.2623 75.7159V54.6107H37.6394C38.3817 54.6107 38.9836 54.0088 38.9836 53.2664V29.0697C38.9777 23.8751 34.7684 19.6658 29.5738 19.6599H16.1312C10.9366 19.6658 6.72722 23.8751 6.72132 29.0697V51.9222H1.34426C0.601899 51.9222 0 52.5241 0 53.2664V66.7091C0 67.4514 0.601899 68.0533 1.34426 68.0533ZM21.5082 78.8074H14.611L15.9054 76.8652C16.0524 76.644 16.1305 76.3841 16.1312 76.1189V68.0533H21.5082V78.8074ZM24.1967 78.8074V51.9222H16.1312V49.2336H29.5738V76.1189C29.5744 76.3841 29.6526 76.644 29.7996 76.8652L31.094 78.8074H24.1967ZM36.2951 51.9222H32.2623V49.2336H36.2951V51.9222ZM9.40984 29.0697C9.41444 25.3592 12.4207 22.353 16.1312 22.3484H21.5082V43.8566H24.1967V22.3484H29.5738C33.2843 22.353 36.2905 25.3592 36.2951 29.0697V46.5451H32.2623V29.0697H29.5738V46.5451H16.1312V29.0697H13.4426V46.5451H9.40984V29.0697ZM9.40984 49.2336H13.4426V51.9222H9.40984V49.2336ZM2.68853 54.6107H21.5082V56.3678L12.0984 59.8965L2.68853 56.3678V54.6107ZM2.68853 59.2388L11.6264 62.5916C11.9303 62.7038 12.2638 62.7038 12.5677 62.5916L21.5082 59.2388V65.3648H2.68853V59.2388Z" fill="#00A77F"/>
<path d="M29.5737 10.25V7.56149C29.5737 3.84967 26.5642 0.840179 22.8524 0.840179C19.1406 0.840179 16.1311 3.84967 16.1311 7.56149V10.25C16.1311 13.9618 19.1406 16.9713 22.8524 16.9713C26.5642 16.9713 29.5737 13.9618 29.5737 10.25ZM18.8196 10.25V7.56149C18.8196 5.3344 20.6253 3.52871 22.8524 3.52871C25.0795 3.52871 26.8852 5.3344 26.8852 7.56149V10.25C26.8852 12.4771 25.0795 14.2828 22.8524 14.2828C20.6253 14.2828 18.8196 12.4771 18.8196 10.25Z" fill="#00A77F"/>
</svg>
