<svg width="92" height="75" viewBox="0 0 92 75" fill="none" xmlns="http://www.w3.org/2000/svg">
<path d="M5.72999 70.4579C4.93538 70.4579 4.2924 69.8149 4.2924 69.0203V38.8092C4.2924 38.0139 4.93538 37.3716 5.72999 37.3716C6.52529 37.3716 7.16757 38.0139 7.16757 38.8092V69.0203C7.16757 69.8135 6.52529 70.4579 5.72999 70.4579Z" fill="#00A77F"/>
<path d="M61.7875 74.7461H10.0428C9.24815 74.7461 8.60516 74.1031 8.60516 73.3085C8.60516 72.5132 9.24815 71.8709 10.0428 71.8709H61.7875C62.5828 71.8709 63.2251 72.5132 63.2251 73.3085C63.2251 74.1031 62.5828 74.7461 61.7875 74.7461Z" fill="#00A77F"/>
<path d="M50.3043 2.87517H28.7405C27.9452 2.87517 27.3029 2.23289 27.3029 1.43759C27.3029 0.642983 27.9452 0 28.7405 0H50.3043C51.0989 0 51.7419 0.642983 51.7419 1.43759C51.7419 2.23289 51.0989 2.87517 50.3043 2.87517Z" fill="#00A77F"/>
<path d="M27.3029 4.31276C26.5076 4.31276 25.8653 3.67048 25.8653 2.87517C25.8653 1.28948 27.1548 0 28.7405 0C29.5351 0 30.1781 0.642983 30.1781 1.43759C30.1781 2.23289 29.5351 2.87517 28.7405 2.87517C28.7405 3.67048 28.0975 4.31276 27.3029 4.31276Z" fill="#00A77F"/>
<path d="M51.7419 4.31276C50.9466 4.31276 50.3043 3.67048 50.3043 2.87517V2.87237C49.509 2.87237 48.8667 2.23149 48.8667 1.43618C48.8667 0.642983 49.509 0 50.3043 0C51.89 0 53.1795 1.28948 53.1795 2.87517C53.1795 3.67048 52.5365 4.31276 51.7419 4.31276Z" fill="#00A77F"/>
<path d="M51.7419 8.62553C50.9466 8.62553 50.3043 7.98325 50.3043 7.18794V2.87518C50.3043 2.08057 50.9466 1.43759 51.7419 1.43759C52.5365 1.43759 53.1795 2.08057 53.1795 2.87518V7.18794C53.1795 7.98325 52.5365 8.62553 51.7419 8.62553Z" fill="#00A77F"/>
<path d="M27.3029 8.62553C26.5076 8.62553 25.8653 7.98325 25.8653 7.18794V2.87518C25.8653 2.08057 26.5076 1.43759 27.3029 1.43759C28.0975 1.43759 28.7405 2.08057 28.7405 2.87518V7.18794C28.7405 7.98325 28.0975 8.62553 27.3029 8.62553Z" fill="#00A77F"/>
<path d="M51.7419 8.62551H27.3029C26.5076 8.62551 25.8653 7.98323 25.8653 7.18792C25.8653 6.39332 26.5076 5.75034 27.3029 5.75034H51.7419C52.5365 5.75034 53.1795 6.39332 53.1795 7.18792C53.1795 7.98323 52.5365 8.62551 51.7419 8.62551Z" fill="#00A77F"/>
<path d="M51.7419 14.3759C50.9466 14.3759 50.3043 13.7336 50.3043 12.9383V7.18792C50.3043 6.39332 50.9466 5.75034 51.7419 5.75034C52.5365 5.75034 53.1795 6.39332 53.1795 7.18792V12.9383C53.1795 13.7336 52.5365 14.3759 51.7419 14.3759Z" fill="#00A77F"/>
<path d="M45.9916 14.3759C45.1963 14.3759 44.554 13.7336 44.554 12.9383V7.18792C44.554 6.39332 45.1963 5.75034 45.9916 5.75034C46.7862 5.75034 47.4291 6.39332 47.4291 7.18792V12.9383C47.4291 13.7336 46.7862 14.3759 45.9916 14.3759Z" fill="#00A77F"/>
<path d="M33.0533 14.3759C32.258 14.3759 31.6157 13.7336 31.6157 12.9383V7.18792C31.6157 6.39332 32.258 5.75034 33.0533 5.75034C33.8479 5.75034 34.4909 6.39332 34.4909 7.18792V12.9383C34.4909 13.7336 33.8479 14.3759 33.0533 14.3759Z" fill="#00A77F"/>
<path d="M27.3029 14.3759C26.5076 14.3759 25.8653 13.7336 25.8653 12.9383V7.18792C25.8653 6.39332 26.5076 5.75034 27.3029 5.75034C28.0975 5.75034 28.7405 6.39332 28.7405 7.18792V12.9383C28.7405 13.7336 28.0975 14.3759 27.3029 14.3759Z" fill="#00A77F"/>
<path d="M67.5434 10.0631H57.4803C56.6857 10.0631 56.0427 9.42085 56.0427 8.62554C56.0427 7.83094 56.6857 7.18796 57.4803 7.18796H67.5434C68.3387 7.18796 68.981 7.83094 68.981 8.62554C68.981 9.42085 68.3387 10.0631 67.5434 10.0631Z" fill="#00A77F"/>
<path d="M57.4803 14.3759C56.6857 14.3759 56.0427 13.7336 56.0427 12.9383V8.62554C56.0427 7.83094 56.6857 7.18796 57.4803 7.18796C58.2756 7.18796 58.9179 7.83094 58.9179 8.62554V12.9383C58.9179 13.7336 58.2756 14.3759 57.4803 14.3759Z" fill="#00A77F"/>
<path d="M21.5638 10.0631H11.5007C10.7054 10.0631 10.0631 9.42085 10.0631 8.62554C10.0631 7.83094 10.7054 7.18796 11.5007 7.18796H21.5638C22.3591 7.18796 23.0014 7.83094 23.0014 8.62554C23.0014 9.42085 22.3591 10.0631 21.5638 10.0631Z" fill="#00A77F"/>
<path d="M11.5007 14.3759C10.7054 14.3759 10.0631 13.7336 10.0631 12.9383V8.62554C10.0631 7.83094 10.7054 7.18796 11.5007 7.18796C12.296 7.18796 12.9383 7.83094 12.9383 8.62554V12.9383C12.9383 13.7336 12.296 14.3759 11.5007 14.3759Z" fill="#00A77F"/>
<path d="M21.575 14.3759C20.7804 14.3759 20.1375 13.7336 20.1375 12.9383V8.62554C20.1375 7.83094 20.7804 7.18796 21.575 7.18796C22.3703 7.18796 23.0126 7.83094 23.0126 8.62554V12.9383C23.0126 13.7336 22.3703 14.3759 21.575 14.3759Z" fill="#00A77F"/>
<path d="M44.554 48.8737H34.4909C33.6955 48.8737 33.0533 48.2308 33.0533 47.4362V30.1851C33.0533 29.3898 33.6955 28.7475 34.4909 28.7475H44.554C45.3486 28.7475 45.9916 29.3898 45.9916 30.1851V47.4362C45.9916 48.2308 45.3486 48.8737 44.554 48.8737ZM35.9284 45.9986H43.1164V31.6227H35.9284V45.9986Z" fill="#00A77F"/>
<path d="M39.5224 43.1234C38.7271 43.1234 38.0848 42.4804 38.0848 41.6858V35.9355C38.0848 35.1401 38.7271 34.4979 39.5224 34.4979C40.317 34.4979 40.96 35.1401 40.96 35.9355V41.6858C40.96 42.4804 40.317 43.1234 39.5224 43.1234Z" fill="#00A77F"/>
<path d="M77.6065 40.2482C76.8119 40.2482 76.1689 39.6052 76.1689 38.8106V20.1262C76.1689 19.3316 76.8119 18.6886 77.6065 18.6886C78.4018 18.6886 79.0441 19.3316 79.0441 20.1262V38.8106C79.0441 39.6052 78.4018 40.2482 77.6065 40.2482Z" fill="#00A77F"/>
<path d="M77.6065 40.2482H44.5238C43.7285 40.2482 43.0862 39.6052 43.0862 38.8106C43.0862 38.0153 43.7285 37.373 44.5238 37.373H77.6079C78.4032 37.373 79.0455 38.0153 79.0455 38.8106C79.0455 39.6052 78.4018 40.2482 77.6065 40.2482Z" fill="#00A77F"/>
<path d="M67.5434 14.3759C66.7488 14.3759 66.1058 13.7336 66.1058 12.9383V8.62554C66.1058 7.83094 66.7488 7.18796 67.5434 7.18796C68.3387 7.18796 68.981 7.83094 68.981 8.62554V12.9383C68.981 13.7336 68.3387 14.3759 67.5434 14.3759Z" fill="#00A77F"/>
<path d="M77.6065 21.5638C76.8119 21.5638 76.169 20.9215 76.169 20.1262C76.169 16.9548 73.59 14.3759 70.4186 14.3759C69.624 14.3759 68.981 13.7336 68.981 12.9383C68.981 12.1437 69.624 11.5007 70.4186 11.5007C75.1757 11.5007 79.0441 15.3691 79.0441 20.1262C79.0441 20.9215 78.4019 21.5638 77.6065 21.5638Z" fill="#00A77F"/>
<path d="M1.43759 40.2482C0.642281 40.2482 0 39.6052 0 38.8106V20.1262C0 19.3316 0.642281 18.6886 1.43759 18.6886C2.23289 18.6886 2.87517 19.3316 2.87517 20.1262V38.8106C2.87517 39.6052 2.23289 40.2482 1.43759 40.2482Z" fill="#00A77F"/>
<path d="M34.5196 40.2482H1.43759C0.642281 40.2482 0 39.6052 0 38.8106C0 38.0153 0.642281 37.373 1.43759 37.373H34.5196C35.3142 37.373 35.9572 38.0153 35.9572 38.8106C35.9572 39.6052 35.3128 40.2482 34.5196 40.2482Z" fill="#00A77F"/>
<path d="M1.43759 21.5638C0.642281 21.5638 0 20.9215 0 20.1262C0 15.3691 3.86843 11.5007 8.62552 11.5007C9.42083 11.5007 10.0631 12.1437 10.0631 12.9383C10.0631 13.7336 9.42083 14.3759 8.62552 14.3759C5.45413 14.3759 2.87517 16.9548 2.87517 20.1262C2.87517 20.9215 2.23289 21.5638 1.43759 21.5638Z" fill="#00A77F"/>
<path d="M10.0427 74.7461C6.87135 74.7461 4.2924 72.1671 4.2924 68.9958C4.2924 68.2004 4.93538 67.5582 5.72999 67.5582C6.52529 67.5582 7.16757 68.2004 7.16757 68.9958C7.16757 70.5815 8.45705 71.8709 10.0427 71.8709C10.8381 71.8709 11.4803 72.5132 11.4803 73.3085C11.4803 74.1031 10.8381 74.7461 10.0427 74.7461Z" fill="#00A77F"/>
<path d="M70.4186 14.3759H8.62553C7.83023 14.3759 7.18795 13.7336 7.18795 12.9383C7.18795 12.1437 7.83023 11.5007 8.62553 11.5007H70.4186C71.2139 11.5007 71.8562 12.1437 71.8562 12.9383C71.8562 13.7336 71.2139 14.3759 70.4186 14.3759Z" fill="#00A77F"/>
<path d="M86.2496 48.859H63.2538C62.4585 48.859 61.8163 48.2167 61.8163 47.4214C61.8163 46.6268 62.4585 45.9838 63.2538 45.9838H86.2496C87.0442 45.9838 87.6872 46.6268 87.6872 47.4214C87.6872 48.2167 87.0442 48.859 86.2496 48.859Z" fill="#00A77F"/>
<path d="M74.7517 74.7405C73.9564 74.7405 73.3141 74.0975 73.3141 73.3029V43.1086C73.3141 42.314 73.9564 41.6711 74.7517 41.6711C75.5463 41.6711 76.1893 42.314 76.1893 43.1086V73.3029C76.1893 74.0975 75.5463 74.7405 74.7517 74.7405Z" fill="#00A77F"/>
<path d="M83.3744 74.7405H66.129C65.3337 74.7405 64.6914 74.0975 64.6914 73.3029C64.6914 72.5076 65.3337 71.8653 66.129 71.8653H83.3744C84.169 71.8653 84.812 72.5076 84.812 73.3029C84.812 74.0975 84.169 74.7405 83.3744 74.7405Z" fill="#00A77F"/>
<path d="M63.2538 67.5512C60.0824 67.5512 57.5035 64.9715 57.5035 61.8008C57.5035 61.0055 58.1458 60.3632 58.9411 60.3632C59.7364 60.3632 60.3787 61.0055 60.3787 61.8008C60.3787 63.3858 61.6681 64.676 63.2538 64.676C64.8395 64.676 66.129 63.3858 66.129 61.8008C66.129 61.0055 66.7713 60.3632 67.5666 60.3632C68.3619 60.3632 69.0042 61.0055 69.0042 61.8008C69.0042 64.9715 66.4252 67.5512 63.2538 67.5512Z" fill="#00A77F"/>
<path d="M67.5666 63.2384H58.9411C58.1458 63.2384 57.5035 62.5954 57.5035 61.8008C57.5035 61.0055 58.1458 60.3632 58.9411 60.3632H67.5666C68.3619 60.3632 69.0042 61.0055 69.0042 61.8008C69.0042 62.5954 68.3619 63.2384 67.5666 63.2384Z" fill="#00A77F"/>
<path d="M58.9411 63.2384C58.8042 63.2384 58.6666 63.218 58.5283 63.178C57.7681 62.9492 57.3364 62.1483 57.5638 61.388L61.8766 47.0094C62.104 46.2485 62.9015 45.8189 63.6666 46.0442C64.4268 46.273 64.8585 47.0739 64.631 47.8342L60.3183 62.2128C60.1316 62.8369 59.5609 63.2384 58.9411 63.2384Z" fill="#00A77F"/>
<path d="M67.5666 63.2384C66.9468 63.2384 66.3761 62.8369 66.1894 62.2128L61.8766 47.8342C61.6492 47.0739 62.0809 46.273 62.8411 46.0442C63.602 45.8189 64.4036 46.2485 64.6311 47.0094L68.9438 61.388C69.1712 62.1483 68.7395 62.9492 67.9793 63.178C67.8411 63.2194 67.7035 63.2384 67.5666 63.2384Z" fill="#00A77F"/>
<path d="M86.2496 67.5512C83.0782 67.5512 80.4993 64.9715 80.4993 61.8008C80.4993 61.0055 81.1415 60.3632 81.9368 60.3632C82.7315 60.3632 83.3744 61.0055 83.3744 61.8008C83.3744 63.3858 84.6639 64.676 86.2496 64.676C87.8353 64.676 89.1248 63.3858 89.1248 61.8008C89.1248 61.0055 89.7671 60.3632 90.5624 60.3632C91.357 60.3632 92 61.0055 92 61.8008C92 64.9715 89.421 67.5512 86.2496 67.5512Z" fill="#00A77F"/>
<path d="M90.5624 63.2384H81.9368C81.1415 63.2384 80.4993 62.5954 80.4993 61.8008C80.4993 61.0055 81.1415 60.3632 81.9368 60.3632H90.5624C91.357 60.3632 92 61.0055 92 61.8008C92 62.5954 91.357 63.2384 90.5624 63.2384Z" fill="#00A77F"/>
<path d="M81.9368 63.2384C81.8 63.2384 81.6624 63.218 81.5241 63.178C80.7639 62.9492 80.3322 62.1483 80.5596 61.388L84.8724 47.0094C85.0991 46.2485 85.9 45.8189 86.6623 46.0442C87.4226 46.273 87.8536 47.0739 87.6268 47.8342L83.3141 62.2128C83.1273 62.8369 82.556 63.2384 81.9368 63.2384Z" fill="#00A77F"/>
<path d="M90.5624 63.2384C89.9426 63.2384 89.3719 62.8369 89.1851 62.2128L84.8724 47.8342C84.645 47.0739 85.0767 46.273 85.8369 46.0442C86.6006 45.8189 87.398 46.2485 87.6268 47.0094L91.9396 61.388C92.1663 62.1483 91.7353 62.9492 90.9751 63.178C90.8368 63.2194 90.6985 63.2384 90.5624 63.2384Z" fill="#00A77F"/>
</svg>
