<svg width="85" height="84" viewBox="0 0 85 84" fill="none" xmlns="http://www.w3.org/2000/svg">
<path d="M77.6404 49.1062L67.959 46.3663L64.4025 42.8098V37.7882C66.1421 36.4851 67.554 34.7945 68.5262 32.8505C69.4983 30.9065 70.0039 28.7626 70.0027 26.5891V26.1667C71.488 26.1667 72.9124 25.5766 73.9627 24.5264C75.0129 23.4761 75.6029 22.0517 75.6029 20.5664C75.6029 19.0812 75.0129 17.6567 73.9627 16.6065C72.9124 15.5562 71.488 14.9662 70.0027 14.9662V10.7661C70.0027 6.91591 68.0601 3.40738 65.053 1.82969C65.0166 1.81067 64.9794 1.79317 64.9413 1.77719C59.2174 -0.592396 52.7869 -0.592396 47.063 1.77719C47.0251 1.79294 46.9879 1.81044 46.9513 1.82969C43.9442 3.40773 42.0016 6.91556 42.0016 10.7664V14.9666C40.5164 14.9666 39.0919 15.5566 38.0417 16.6068C36.9914 17.6571 36.4014 19.0815 36.4014 20.5668C36.4014 22.0521 36.9914 23.4765 38.0417 24.5267C39.0919 25.577 40.5164 26.167 42.0016 26.167V26.5891C41.9998 29.7184 43.0481 32.7577 44.9787 35.2205C43.4407 35.6283 41.8051 35.4349 40.4047 34.6795C39.1737 34.0153 37.8061 33.6442 36.4082 33.595C35.0104 33.5458 33.62 33.8199 32.3455 34.396L32.1241 34.497C32.1749 34.1971 32.2007 33.8935 32.2012 33.5894C32.2012 32.1041 31.6112 30.6797 30.561 29.6294C29.5107 28.5792 28.0863 27.9892 26.601 27.9892C25.1158 27.9892 23.6913 28.5792 22.6411 29.6294C21.5908 30.6797 21.0008 32.1041 21.0008 33.5894C21.0013 33.8935 21.0272 34.1971 21.078 34.497L20.8564 34.396C19.5823 33.8178 18.1915 33.5425 16.7931 33.5918C15.3948 33.6411 14.0268 34.0135 12.7965 34.68C11.3206 35.4686 9.59227 35.6397 7.99046 35.1557L7.40436 34.9789L6.59618 37.66L7.1786 37.8351C7.90684 38.0564 8.66004 38.1851 9.42044 38.2183L0.147881 56.7641H0.148931C0.0510383 56.9584 3.06489e-05 57.1728 0 57.3903C0.00208443 59.2463 0.74028 61.0256 2.05263 62.338C3.36499 63.6503 5.14432 64.3885 7.00027 64.3906H15.4006C17.2565 64.3885 19.0359 63.6503 20.3482 62.338C21.6606 61.0256 22.3988 59.2463 22.4009 57.3903C22.4008 57.173 22.3498 56.9587 22.2519 56.7647H22.253L12.7436 37.7455C13.2258 37.5834 13.6929 37.3798 14.1398 37.137C14.9903 36.6842 15.9329 36.4316 16.8957 36.3982C17.8586 36.3648 18.8164 36.5517 19.6961 36.9445L22.4009 38.1761V70.1308C21.0358 70.4098 19.785 71.0897 18.8085 72.0834C17.8319 73.0772 17.1739 74.3396 16.9188 75.7093C15.3121 76.0084 13.8607 76.8602 12.8163 78.1172C11.7718 79.3742 11.2002 80.957 11.2004 82.5913C11.2004 82.9626 11.3479 83.3187 11.6105 83.5813C11.8731 83.8438 12.2292 83.9913 12.6005 83.9913H30.8012V57.2557C30.7998 56.0065 31.2168 54.7927 31.9856 53.808C32.7545 52.8233 33.8309 52.1245 35.0432 51.8228L39.0104 50.8309L37.8085 62.8505C37.7889 63.0452 37.8104 63.2418 37.8715 63.4277C37.9326 63.6136 38.0319 63.7846 38.1632 63.9297C38.2945 64.0748 38.4547 64.1908 38.6335 64.2702C38.8124 64.3496 39.0059 64.3906 39.2015 64.3906H43.0086L42.0435 68.2512C41.9733 68.5315 41.9915 68.8265 42.0956 69.096C42.1997 69.3654 42.3846 69.5961 42.625 69.7563L54.6021 77.7403V83.9913H57.4022V77.7403L69.3793 69.7556C69.6197 69.5954 69.8046 69.3647 69.9087 69.0953C70.0128 68.8258 70.0311 68.5308 69.9609 68.2505L68.9957 64.3906H72.8028C72.9985 64.3906 73.192 64.3496 73.3708 64.2702C73.5497 64.1908 73.7099 64.0748 73.8411 63.9297C73.9724 63.7846 74.0718 63.6136 74.1329 63.4277C74.194 63.2418 74.2154 63.0452 74.1959 62.8505L72.9938 50.8302L76.9612 51.8221C78.1736 52.1238 79.2501 52.8228 80.0189 53.8076C80.7878 54.7924 81.2047 56.0063 81.2031 57.2557V83.9913H84.0033V57.2557C84.0054 55.3818 83.3799 53.5611 82.2267 52.0841C81.0735 50.607 79.4588 49.5587 77.6404 49.1062ZM15.4006 61.5905H7.00027C6.13191 61.5895 5.28513 61.3198 4.57609 60.8185C3.86706 60.3171 3.33051 59.6087 3.04004 58.7904H19.3608C19.0704 59.6087 18.5338 60.3171 17.8248 60.8185C17.1157 61.3198 16.269 61.5895 15.4006 61.5905ZM3.66534 55.9903L11.2004 40.9203L18.7355 55.9903H3.66534ZM38.415 48.0934L42.0016 40.9203L44.4983 45.9134L44.0454 46.3663L38.415 48.0934ZM54.6021 54.1747L56.0022 52.5414L57.4022 54.1747V69.3828L56.0022 73.058L54.6021 69.3828V54.1747ZM51.802 62.0325L50.5911 58.8537L51.802 57.4414V62.0325ZM60.2023 62.0325V57.4414L61.4132 58.8541L60.2023 62.0325ZM49.4569 55.8751L46.4333 47.9386L49.0019 45.3698L54.0946 50.4625L49.4569 55.8751ZM62.5485 55.8751L57.9097 50.4632L63.0024 45.3705L65.5715 47.9396L62.5485 55.8751ZM61.6024 42.8098L56.0022 48.41L50.402 42.8098V39.4225C52.1686 40.1923 54.0751 40.5897 56.0022 40.5897C57.9293 40.5897 59.8357 40.1923 61.6024 39.4225V42.8098ZM47.6018 37.7882V42.8098L46.5852 43.8264L43.7816 38.219C44.5407 38.1859 45.2926 38.0575 46.0196 37.8368L47.2223 37.4936C47.347 37.594 47.4735 37.6921 47.6018 37.7882ZM72.8028 20.5664C72.8019 21.3088 72.5066 22.0205 71.9817 22.5454C71.4568 23.0704 70.7451 23.3657 70.0027 23.3665V17.7663C70.7451 17.7672 71.4568 18.0625 71.9817 18.5874C72.5066 19.1124 72.8019 19.8241 72.8028 20.5664ZM44.8017 10.7661C44.8017 7.967 46.1337 5.45128 48.2002 4.33701C53.1993 2.28611 58.805 2.28611 63.8041 4.33701C65.8706 5.45163 67.2026 7.96735 67.2026 10.7664V12.0382C66.2851 10.5607 65.4818 9.01525 64.7998 7.41538C64.6581 7.08462 64.3946 6.82107 64.0639 6.67942C63.7331 6.53777 63.3606 6.52889 63.0234 6.65463C58.4949 8.34282 53.5096 8.34282 48.9811 6.65463C48.6439 6.5289 48.2713 6.53781 47.9406 6.67949C47.6098 6.82117 47.3463 7.08476 47.2048 7.41556C46.5227 9.01546 45.7193 10.5609 44.8017 12.0384V10.7661ZM39.2015 20.5664C39.2024 19.8241 39.4977 19.1124 40.0226 18.5874C40.5476 18.0625 41.2593 17.7672 42.0016 17.7663V23.3665C41.2593 23.3657 40.5476 23.0704 40.0226 22.5454C39.4977 22.0205 39.2024 21.3088 39.2015 20.5664ZM44.8017 16.86C46.5659 14.6612 48.0588 12.258 49.2481 9.7022C53.6485 11.0603 58.3562 11.0603 62.7566 9.7022C63.9455 12.258 65.4379 14.6612 67.2017 16.86V26.5891C67.2017 29.5597 66.0217 32.4085 63.9212 34.509C61.8207 36.6095 58.9718 37.7896 56.0013 37.7896C53.0308 37.7896 50.1819 36.6095 48.0814 34.509C45.9809 32.4085 44.8009 29.5597 44.8009 26.5891L44.8017 16.86ZM26.601 30.7893C27.3434 30.7902 28.0551 31.0855 28.58 31.6104C29.105 32.1353 29.4003 32.847 29.4011 33.5894C29.4007 33.9811 29.3169 34.3683 29.1554 34.7252C28.9938 35.0821 28.7582 35.4005 28.4642 35.6594C28.3184 35.7906 28.2019 35.951 28.1221 36.1302C28.0424 36.3094 28.0011 36.5033 28.0011 36.6994V69.9908H25.201V36.6994C25.2009 36.5033 25.1597 36.3094 25.0799 36.1302C25.0002 35.951 24.8836 35.7906 24.7379 35.6594C24.4438 35.4005 24.2082 35.0821 24.0467 34.7252C23.8851 34.3683 23.8013 33.9811 23.8009 33.5894C23.8018 32.847 24.0971 32.1353 24.622 31.6104C25.147 31.0855 25.8587 30.7902 26.601 30.7893ZM20.8305 74.0207C21.2198 73.6295 21.6827 73.3194 22.1926 73.1083C22.7024 72.8972 23.2491 72.7893 23.8009 72.7909H28.0011V75.591H19.8382C20.0472 74.9998 20.3863 74.4632 20.8305 74.0207ZM14.238 81.1912C14.5285 80.3724 15.0654 79.6637 15.775 79.1623C16.4845 78.6609 17.3319 78.3915 18.2007 78.3911H28.0011V81.1912H14.238ZM30.8012 50.9926V38.1761L33.5059 36.9445C34.3187 36.5781 35.2001 36.3889 36.0916 36.3895C37.1285 36.3866 38.1496 36.6435 39.0617 37.1366C39.5087 37.3798 39.9759 37.5837 40.4581 37.7462L34.8372 48.9879L34.3647 49.1062C33.0411 49.4359 31.818 50.0834 30.8012 50.9926ZM44.9993 67.9732L46.16 63.33C46.2116 63.1236 46.2154 62.9082 46.1713 62.7001C46.1271 62.4919 46.0362 62.2966 45.9052 62.1289C45.7743 61.9612 45.6069 61.8256 45.4157 61.7323C45.2244 61.639 45.0145 61.5905 44.8017 61.5905H40.7486L41.9036 50.0315L43.9705 49.3426L53.134 73.3968L44.9993 67.9732ZM67.2026 61.5905C66.9898 61.5905 66.7799 61.639 66.5887 61.7323C66.3975 61.8256 66.23 61.9612 66.0991 62.1289C65.9682 62.2966 65.8772 62.4919 65.833 62.7001C65.7889 62.9082 65.7928 63.1236 65.8444 63.33L67.005 67.9732L58.8697 73.3968L68.0332 49.3426L70.1 50.0315L71.2558 61.5905H67.2026Z" fill="#00A77F"/>
</svg>
